<?xml version="1.0" encoding="UTF-8"?>
<svg xmlns="http://www.w3.org/2000/svg" xmlns:xlink="http://www.w3.org/1999/xlink" version="1.2" >
<font id="Pierson Light">
<font-face  font-family="Pierson" units-per-em="1024" ascent="975" descent="-300" font-style="normal" font-weight="300" font-stretch="normal" cap-height="1042" x-height="488" underline-position="-125" underline-thickness="50" />
<missing-glyph  horiz-adv-x="100" d="" />
<glyph glyph-name="NULL" d="" />
<glyph glyph-name="CR" unicode="&#xd;" horiz-adv-x="256" d="" />
<glyph glyph-name="space" unicode="&#x20;" horiz-adv-x="362" d="" />
<glyph glyph-name="exclam" unicode="&#x21;" horiz-adv-x="201" d="M136 30 C136 77 66 77 66 30 C66 -16 136 -16 136 29 L136 30 L136 30 Z M101 754 C78 754 67 719 70 670 L96 209 L105 209 L131 670 C134 719 124 754 101 754 L101 754 Z " />
<glyph glyph-name="quotedbl" unicode="&#x22;" horiz-adv-x="414" d="M216 750 C205 750 198 731 201 705 L219 560 L225 560 L243 705 C246 731 239 750 228 750 L216 750 L216 750 Z M96 750 C85 750 78 731 81 705 L99 560 L105 560 L123 705 C126 731 119 750 108 750 L96 750 L96 750 Z " />
<glyph glyph-name="numbersign" unicode="&#x23;" horiz-adv-x="643" d="M471 681 L442 479 L234 479 L263 681 L258 681 L229 479 L64 479 L58 441 L224 441 L192 219 L25 219 L19 181 L187 181 L161 0 L166 0 L192 181 L400 181 L374 0 L379 0 L405 181 L573 181 L578 219 L410 219 L442 441 L618 441 L623 479 L447 479 L476 681 L471 681 L471 681 Z M229 441 L437 441 L405 219 L197 219 L229 441 L229 441 Z " />
<glyph glyph-name="dollar" unicode="&#x24;" horiz-adv-x="636" d="M71 47 L75 59 C81 74 109 70 143 50 C180 26 224 8 271 -2 L271 -76 L289 -76 L289 -5 C309 -8 330 -10 351 -10 L351 -75 L369 -75 L369 -10 C502 -5 597 74 597 183 C597 254 512 340 369 408 L369 747 C380 744 391 741 402 737 C451 719 501 672 522 622 L532 600 L554 600 L554 707 L537 707 L532 702 C527 696 502 703 473 718 L473 717 C450 729 423 741 397 749 L396 746 C387 748 378 750 369 752 L369 825 L351 825 L351 755 C331 758 310 760 289 760 L289 825 L271 825 L271 760 C156 755 74 680 74 577 C74 523 145 449 271 379 L271 7 C249 12 228 19 208 28 C159 51 107 109 85 166 L76 190 L53 190 L53 47 L71 47 L71 47 Z M288 368 C307 358 329 348 350 338 L350 -5 C329 -5 308 -3 288 1 L288 368 L288 368 Z M368 328 C484 269 549 206 549 164 C549 69 474 0 368 -5 L368 328 L368 328 Z M288 448 L288 755 C309 755 330 753 350 749 L350 415 C328 426 307 437 288 448 L288 448 Z M270 458 C172 514 118 565 118 598 C118 686 181 750 270 756 L270 458 L270 458 Z " />
<glyph glyph-name="ampersand" unicode="&#x26;" horiz-adv-x="285" d="M311 471 L316 466 C404 493 468 555 468 613 C468 698 404 760 315 760 C221 760 153 694 153 603 C153 569 210 498 289 404 C289 404 371 311 503 155 C429 80 349 36 275 36 C175 36 102 112 102 216 C102 317 167 411 257 438 L248 441 C133 406 50 305 50 201 C50 79 132 -10 246 -10 C333 -10 428 46 515 141 C527 127 539 113 551 98 C604 35 667 -11 701 -11 C766 -11 821 55 832 147 L823 150 C814 80 772 30 722 30 C694 30 641 69 595 124 C579 143 564 161 549 179 C618 265 680 375 725 499 L713 499 C669 378 607 272 538 192 C412 341 334 430 334 430 C255 524 198 595 198 630 C198 698 248 748 316 748 C381 748 428 693 428 616 C428 552 379 492 312 471 L311 471 L311 471 Z " />
<glyph glyph-name="quotesingle" unicode="&#x27;" horiz-adv-x="245" d="M96 750 C85 750 78 731 81 705 L99 560 L105 560 L123 705 C126 731 119 750 108 750 L96 750 L96 750 Z " />
<glyph glyph-name="parenleft" unicode="&#x28;" horiz-adv-x="645" d="M320 760 C192 674 100 469 100 273 C100 84 189 -121 313 -214 L316 -209 C211 -130 135 73 135 273 C135 478 214 680 323 754 L320 760 L320 760 Z " />
<glyph glyph-name="parenright" unicode="&#x29;" horiz-adv-x="645" d="M27 754 C156 670 250 468 250 273 C250 75 159 -128 34 -209 L37 -214 C181 -121 285 84 285 273 C285 459 178 664 30 760 L27 754 L27 754 Z " />
<glyph glyph-name="asterisk" unicode="&#x2a;" horiz-adv-x="268" d="M263 675 L263 675 L263 675 Z M246 556 C267 542 283 571 261 582 C261 582 251 564 247 556 L246 556 L246 556 Z M263 675 C283 686 269 715 248 701 L248 702 L152 629 L247 557 L262 583 L153 629 L263 676 L264 676 L263 675 L263 675 Z M152 630 L41 583 C19 572 34 542 55 556 L55 557 C50 565 40 583 40 583 L55 557 L150 629 L135 511 C133 486 167 486 165 511 L150 629 L152 630 L152 630 Z M54 704 L39 678 C43 686 54 704 54 704 L54 704 Z M54 704 C33 718 18 687 39 676 L39 677 L150 630 L54 704 L54 704 Z M150 630 L165 750 C167 775 133 775 135 750 L150 630 L150 630 Z " />
<glyph glyph-name="plus" unicode="&#x2b;" horiz-adv-x="710" d="M336 505 L336 268 L100 268 L100 232 L336 232 L336 -5 L374 -5 L374 232 L610 232 L610 268 L374 268 L374 505 L336 505 L336 505 Z " />
<glyph glyph-name="comma" unicode="&#x2c;" horiz-adv-x="258" d="M174 44 C198 -40 146 -109 64 -109 L64 -112 C135 -112 187 -61 187 9 C187 48 176 80 159 98 C150 108 138 114 124 114 C89 114 64 89 64 54 C64 19 89 -6 124 -6 C150 -6 170 14 174 43 L174 44 L174 44 Z " />
<glyph glyph-name="hyphen" unicode="&#x2d;" horiz-adv-x="520" d="M80 264 L440 264 L440 306 L80 306 L80 264 L80 264 Z " />
<glyph glyph-name="period" unicode="&#x2e;" horiz-adv-x="195" d="M160 30 C160 77 90 77 90 30 C90 -16 160 -16 160 29 L160 30 L160 30 Z " />
<glyph glyph-name="slash" unicode="&#x2f;" horiz-adv-x="379" d="M319 770 L37 -80 L67 -80 L349 770 L319 770 L319 770 Z " />
<glyph glyph-name="zero" unicode="0" horiz-adv-x="606" d="M73 250 C73 375 170 489 305 489 C426 489 537 389 537 250 C537 125 440 11 305 11 C184 11 73 111 73 250 L73 250 Z M49 250 C49 99 171 -10 305 -10 C453 -10 561 114 561 250 C561 401 439 510 305 510 C157 510 49 386 49 250 L49 250 Z " />
<glyph glyph-name="one" unicode="1" horiz-adv-x="189" d="M159 20 C135 20 120 37 120 70 L120 430 C120 463 135 480 159 480 L159 500 L31 500 L31 480 C55 480 70 463 70 430 L70 70 C70 37 55 20 31 20 L31 0 L159 0 L159 20 L159 20 Z " />
<glyph glyph-name="two" unicode="2" horiz-adv-x="617" d="M457 44 L132 44 C103 44 63 8 32 1 C285 131 517 271 517 343 C517 440 430 510 310 510 C181 510 69 419 45 294 L56 291 C76 396 172 472 284 472 C390 472 467 413 467 331 C467 256 255 123 23 5 L29 1 C27 1 25 1 23 1 L515 1 L543 45 C543 45 554 62 555 63 C551 63 542 64 542 64 C531 53 500 45 457 45 L457 44 L457 44 Z " />
<glyph glyph-name="three" unicode="3" horiz-adv-x="498" d="M18 -222 L20 -232 C274 -205 458 -109 458 -2 C458 94 315 163 116 165 C318 252 462 335 462 383 C462 456 378 509 263 509 C145 509 43 442 22 350 L33 347 C50 421 138 474 243 474 C339 474 409 429 409 366 C409 319 276 243 93 165 L93 155 C94 155 95 155 96 155 C95 154 94 154 93 154 C275 128 406 56 406 -19 C406 -114 243 -200 18 -224 L18 -222 L18 -222 Z " />
<glyph glyph-name="four" unicode="4" horiz-adv-x="791" d="M768 19 C769 31 772 49 774 61 C760 61 756 64 753 59 C747 47 723 38 697 38 L505 38 L505 530 L499 530 L15 9 L15 0 L455 0 L455 -220 L505 -220 L505 0 L691 0 C717 0 740 -3 744 -8 L746 -9 C746 -9 739 -9 759 -10 L765 -10 C766 -2 768 11 769 19 L768 19 L768 19 Z M66 38 L455 454 L455 38 L66 38 L66 38 Z " />
<glyph glyph-name="five" unicode="5" horiz-adv-x="518" d="M363 500 L136 500 L56 223 L65 215 L88 215 C294 215 444 137 444 30 C444 -89 282 -196 59 -223 L60 -232 C308 -202 488 -84 488 47 C488 177 319 268 88 268 L145 455 L430 457 L434 478 L434 478 L438 499 C439 502 440 505 441 508 L422 508 C413 503 393 499 364 499 L363 500 L363 500 Z " />
<glyph glyph-name="six" unicode="6" horiz-adv-x="657" d="M640 750 C303 750 59 556 59 287 C59 115 177 -10 341 -10 C494 -10 605 95 605 239 C605 368 486 461 321 461 C225 461 149 418 116 351 C159 583 366 743 641 743 L640 750 L640 750 Z M107 260 C107 374 196 457 318 457 C455 457 554 367 554 242 C554 98 464 -6 339 -6 C204 -6 107 106 107 260 L107 260 Z " />
<glyph glyph-name="seven" unicode="7" horiz-adv-x="529" d="M53 448 C57 448 71 447 71 447 C83 455 105 461 135 461 L502 461 L515 475 L123 -220 L162 -220 L525 485 L525 500 L156 500 C130 500 107 500 102 501 L81 501 C81 500 81 499 81 498 L72 481 L70 481 C65 469 59 457 54 448 L53 448 L53 448 Z " />
<glyph glyph-name="eight" unicode="8" horiz-adv-x="633" d="M268 387 C280 383 292 379 304 375 C449 329 554 278 554 198 C554 80 456 -6 320 -6 C187 -6 91 70 91 175 C91 270 164 356 268 388 L268 387 L268 387 Z M261 391 C135 355 47 269 47 176 C47 69 162 -8 320 -8 C478 -8 593 71 593 179 C593 297 498 362 362 410 C482 443 565 519 565 598 C565 693 461 761 318 761 C175 761 72 687 72 584 C72 507 149 435 261 391 L261 391 Z M357 411 C345 415 333 419 320 423 C199 461 112 530 112 603 C112 693 199 759 320 759 C438 759 523 690 523 594 C523 513 455 440 357 411 L357 411 Z " />
<glyph glyph-name="nine" unicode="9" horiz-adv-x="657" d="M17 -250 C354 -250 598 -56 598 213 C598 385 480 510 316 510 C163 510 52 405 52 261 C52 132 171 39 336 39 C432 39 508 82 541 149 C498 -83 291 -243 16 -243 L17 -250 L17 -250 Z M550 240 C550 126 461 43 339 43 C202 43 103 133 103 258 C103 402 193 506 318 506 C453 506 550 394 550 240 L550 240 Z " />
<glyph glyph-name="colon" unicode="&#x3a;" horiz-adv-x="135" d="M160 420 C160 467 90 467 90 420 C90 374 160 374 160 419 L160 420 L160 420 Z M160 29 C160 76 90 76 90 29 C90 -17 160 -17 160 28 L160 29 L160 29 Z " />
<glyph glyph-name="semicolon" unicode="&#x3b;" horiz-adv-x="258" d="M160 420 C160 467 90 467 90 420 C90 374 160 374 160 419 L160 420 L160 420 Z M174 43 C198 -41 146 -110 64 -110 L64 -113 C135 -113 187 -62 187 8 C187 47 176 79 159 97 C150 107 138 113 124 113 C89 113 64 88 64 53 C64 18 89 -7 124 -7 C150 -7 170 13 174 42 L174 43 L174 43 Z " />
<glyph glyph-name="equal" unicode="&#x3d;" horiz-adv-x="618" d="M78 211 L78 189 L548 189 L548 211 L78 211 L78 211 Z M78 311 L78 289 L548 289 L548 311 L78 311 L78 311 Z " />
<glyph glyph-name="question" unicode="&#x3f;" horiz-adv-x="305" d="M160 30 C160 77 90 77 90 30 C90 -16 160 -16 160 29 L160 30 L160 30 Z M121 174 C121 174 123 358 125 359 C206 359 245 398 281 452 C297 476 309 518 309 552 C309 672 240 759 145 759 C118 759 98 743 98 722 C98 708 109 697 125 697 C136 697 152 706 163 706 C240 706 295 639 295 546 C295 526 285 497 270 475 C244 437 210 409 108 409 C111 410 113 174 113 174 L121 174 L121 174 Z " />
<glyph glyph-name="at" unicode="&#x40;" horiz-adv-x="1274" d="M1178 0 C1113 -139 888 -240 642 -240 C324 -240 94 -30 94 259 C94 548 322 757 637 757 C952 757 1180 583 1180 343 C1180 146 1093 4 972 4 C848 4 779 86 807 200 L877 480 L830 480 L806 385 C792 448 728 491 643 491 C461 491 330 368 330 198 C330 91 417 14 538 14 C630 14 714 66 754 142 C760 50 840 -11 964 -11 C1112 -11 1220 139 1220 345 C1220 593 976 772 638 772 C300 772 56 557 56 261 C56 -33 307 -246 654 -246 C901 -246 1129 -142 1196 2 L1178 0 L1178 0 Z M800 358 L761 202 C738 110 656 43 566 43 C462 43 387 113 387 209 C387 365 495 478 644 478 C734 478 800 427 801 358 L800 358 L800 358 Z " />
<glyph glyph-name="A" unicode="A" horiz-adv-x="719" d="M624 125 L624 125 L399 732 C399 732 389 770 385 770 L379 770 C382 752 366 736 340 732 L344 722 L108 116 C84 63 39 25 -3 25 L-17 25 L-17 0 L157 0 L157 25 L145 25 C108 25 95 63 112 116 L181 295 L500 295 L562 125 C583 67 570 25 531 25 L519 25 L519 0 L709 0 L709 25 L702 25 C678 25 644 67 623 125 L624 125 L624 125 Z M183 299 L345 718 L499 299 L183 299 L183 299 Z " />
<glyph glyph-name="B" unicode="B" horiz-adv-x="713" d="M283 1 L233 1 C195 1 168 39 168 91 L168 385 L303 385 C480 385 608 305 608 194 C608 43 472 1 283 1 L283 1 Z M288 0 C511 0 673 42 673 194 C673 302 534 381 338 387 C527 401 657 473 657 569 C657 674 578 750 291 750 L71 750 L71 725 C95 725 110 708 110 675 L110 75 C110 42 95 25 71 25 L71 0 L288 0 L288 0 Z M267 388 L168 388 L168 747 L285 747 C531 747 599 670 599 563 C599 462 460 388 267 388 L267 388 Z " />
<glyph glyph-name="C" unicode="C" horiz-adv-x="818" d="M772 49 L772 168 L750 168 L740 148 C719 104 673 58 629 35 C575 9 509 -6 429 -6 C253 -6 125 154 125 375 C125 596 258 756 442 756 C519 756 578 743 626 721 C669 701 718 651 740 602 L750 582 L772 582 L772 698 L755 698 L750 690 C745 680 715 688 682 707 C627 740 553 760 441 760 C220 760 60 598 60 375 C60 152 215 -10 428 -10 C541 -10 624 13 686 50 C717 66 742 70 748 58 L753 49 L772 49 L772 49 Z M763 622 L763 622 L763 622 L763 622 Z " />
<glyph glyph-name="D" unicode="D" horiz-adv-x="876" d="M279 3 C182 3 168 35 168 80 L168 747 L330 747 C602 747 757 591 757 375 C757 138 556 3 279 3 L279 3 Z M71 730 C95 730 110 713 110 680 L110 70 C110 37 95 20 71 20 L71 0 L284 0 C595 0 821 136 821 375 C821 593 648 750 342 750 L71 750 L71 730 L71 730 Z " />
<glyph glyph-name="E" unicode="E" horiz-adv-x="642" d="M51 730 L60 730 C89 730 110 701 110 660 L110 90 C110 49 89 20 60 20 L51 20 L51 0 L593 0 L593 1 L594 1 C598 24 604 59 608 82 L591 82 L585 70 C565 31 506 3 445 3 L248 3 C178 3 168 35 168 80 L168 385 L383 385 C429 385 473 353 487 309 L491 296 L508 296 L508 478 L491 478 L487 465 C473 421 429 389 383 389 L168 389 L168 747 L443 747 C489 747 537 715 556 671 L562 658 L579 658 C576 684 571 723 568 749 L568 750 L51 750 L51 730 L51 730 Z " />
<glyph glyph-name="F" unicode="F" horiz-adv-x="617" d="M51 730 L60 730 C89 730 110 701 110 660 L110 90 C110 49 89 20 60 20 L51 20 L51 0 L227 0 L227 20 L218 20 C189 20 168 49 168 90 L168 385 L373 385 C419 385 463 353 477 309 L481 296 L498 296 L498 478 L481 478 L477 465 C463 421 419 389 373 389 L168 389 L168 747 L443 747 C489 747 537 715 556 671 L562 658 L579 658 C576 684 571 723 568 749 L568 750 L51 750 L51 730 L51 730 Z " />
<glyph glyph-name="G" unicode="G" horiz-adv-x="849" d="M755 698 L750 690 C745 680 715 688 682 707 C627 740 553 760 441 760 C220 760 60 598 60 375 C60 152 214 -10 426 -10 C612 -10 737 20 827 62 L826 65 C805 55 781 46 753 38 L753 216 C753 265 771 301 795 301 L802 301 L802 326 L645 326 L645 301 L652 301 C676 301 694 265 694 216 C694 170 694 119 694 81 C694 83 694 85 694 87 L694 25 L717 29 C646 13 555 3 436 3 C471 3 504 5 534 9 C497 6 461 4 437 4 C257 4 126 161 126 377 C126 598 259 758 443 758 C520 758 579 745 627 723 C670 703 719 653 741 604 L751 584 L773 584 L773 700 L755 698 L755 698 Z M766 624 L766 624 L766 624 L766 624 Z M535 9 C627 20 689 47 696 81 C696 49 696 27 696 26 C696 26 613 16 536 9 L535 9 L535 9 Z " />
<glyph glyph-name="H" unicode="H" horiz-adv-x="833" d="M773 20 C749 20 734 37 734 70 L734 680 C734 713 749 730 773 730 L773 750 L636 750 L636 730 C660 730 675 713 675 680 L675 387 L204 387 L204 680 C204 713 219 730 243 730 L243 750 L107 750 L107 730 C131 730 146 713 146 680 L146 70 C146 37 131 20 107 20 L107 0 L243 0 L243 20 C219 20 204 37 204 70 L204 383 L675 383 L675 70 C675 37 660 20 636 20 L636 0 L773 0 L773 20 L773 20 Z " />
<glyph glyph-name="I" unicode="I" horiz-adv-x="273" d="M213 20 C189 20 174 37 174 70 L174 680 C174 713 189 730 213 730 L213 750 L76 750 L76 730 C100 730 115 713 115 680 L115 70 C115 37 100 20 76 20 L76 0 L213 0 L213 20 L213 20 Z " />
<glyph glyph-name="J" unicode="J" horiz-adv-x="273" d="M213 750 L76 750 L76 730 C100 730 115 713 115 680 L115 -34 C115 -181 31 -215 -26 -215 C-54 -215 -42 -168 -70 -168 C-86 -168 -97 -179 -97 -194 C-97 -209 -69 -220 -30 -220 C53 -220 174 -164 174 78 L174 680 C174 713 189 730 213 730 L213 750 L213 750 Z " />
<glyph glyph-name="K" unicode="K" horiz-adv-x="741" d="M718 20 C693 20 664 35 629 62 L222 407 C322 493 421 580 521 666 C570 708 616 731 655 731 L655 751 L484 751 L484 731 L497 731 C540 731 523 689 457 631 L168 376 L168 681 C168 714 183 731 207 731 L207 751 L71 751 L71 731 C95 731 110 714 110 681 L110 71 C110 38 95 21 71 21 L71 1 L207 1 L207 21 C183 21 168 38 168 71 L168 376 L618 1 L718 1 L718 20 L718 20 Z " />
<glyph glyph-name="L" unicode="L" horiz-adv-x="650" d="M213 750 L76 750 L76 730 C100 730 115 713 115 680 L115 70 C115 37 100 20 76 20 L76 0 L621 0 L621 5 L635 89 L618 89 L612 77 C592 38 533 10 472 10 L254 10 C184 10 174 39 174 80 L174 680 C174 713 189 730 213 730 L213 750 L213 750 Z " />
<glyph glyph-name="M" unicode="M" horiz-adv-x="883" d="M848 750 L753 750 L472 72 L160 750 L59 750 L59 730 C79 730 94 721 110 700 C104 490 98 280 92 70 C91 37 76 20 52 20 L52 0 L151 0 L151 20 C129 20 116 33 114 61 L126 677 C232 451 337 224 444 0 L459 0 L460 5 L756 704 C762 493 768 282 773 71 C774 38 760 21 736 21 L736 1 L872 1 L872 21 C848 21 833 38 832 71 L814 685 C814 716 827 731 851 731 L848 750 L848 750 Z " />
<glyph glyph-name="N" unicode="N" horiz-adv-x="786" d="M28 730 C51 730 72 718 96 694 L95 70 L95 70 C95 37 80 20 56 20 L56 0 L151 0 L151 20 C127 20 112 37 112 70 L112 70 L110 678 C297 452 483 225 671 0 L683 0 L687 680 L687 680 C687 713 702 730 726 730 L726 750 L631 750 L631 730 C655 730 670 713 670 680 L671 93 C489 312 307 531 125 750 L29 750 L28 730 L28 730 Z " />
<glyph glyph-name="O" unicode="O" horiz-adv-x="918" d="M125 375 C125 596 264 756 456 756 C655 756 799 596 799 375 C799 154 652 -6 448 -6 C261 -6 125 154 125 375 L125 375 Z M61 375 C61 152 223 -10 447 -10 C688 -10 863 152 863 375 C863 598 692 760 457 760 C227 760 61 598 61 375 L61 375 Z " />
<glyph glyph-name="P" unicode="P" horiz-adv-x="673" d="M222 20 C198 20 183 37 183 70 L183 353 L255 353 C486 353 653 416 653 541 C653 662 517 750 328 750 L85 750 L85 730 C109 730 124 713 124 680 L124 70 C124 37 109 20 85 20 L85 0 L222 0 L222 20 L222 20 Z M183 365 L183 740 L313 740 C478 740 598 660 598 550 C598 427 454 365 255 365 L183 365 L183 365 Z " />
<glyph glyph-name="Q" unicode="Q" horiz-adv-x="913" d="M1325 -52 L1324 -51 C1296 -75 1141 -92 956 -92 C727 -92 498 -57 402 -8 C417 -9 432 -10 447 -10 C688 -10 863 152 863 375 C863 598 692 760 457 760 C227 760 61 598 61 375 C61 188 175 44 343 2 C481 -76 735 -132 948 -132 C1111 -132 1269 -99 1324 -53 L1325 -52 L1325 -52 Z M393 -5 C234 21 123 172 123 374 C123 595 262 755 454 755 C653 755 797 595 797 374 C797 152 648 -9 442 -9 C425 -9 409 -8 393 -5 L393 -5 L393 -5 Z " />
<glyph glyph-name="R" unicode="R" horiz-adv-x="736" d="M71 730 C95 730 110 713 110 680 L110 70 C110 37 95 20 71 20 L71 0 L207 0 L207 20 C183 20 168 37 168 70 L168 365 L392 365 C406 333 464 220 540 80 C580 6 594 0 726 0 L726 12 C652 12 643 17 609 80 C532 221 472 331 451 369 C558 383 631 440 631 540 C631 662 531 750 394 750 L70 750 L71 730 L71 730 Z M167 380 L167 738 L376 738 C486 738 566 660 566 552 C566 437 494 380 394 380 L167 380 L167 380 Z " />
<glyph glyph-name="S" unicode="S" horiz-adv-x="636" d="M396 749 L395 746 C360 755 322 760 283 760 C161 760 73 683 73 576 C73 513 169 423 337 344 C472 281 549 211 549 165 C549 66 468 -5 355 -5 C304 -5 253 7 208 28 C159 51 107 109 85 166 L76 190 L53 190 L53 47 L71 47 L75 59 C81 74 109 70 143 50 C201 12 277 -11 355 -11 C495 -11 596 70 596 182 C596 251 515 338 372 405 C210 481 118 554 118 597 C118 689 187 755 283 755 C324 755 364 748 400 736 C449 718 499 671 520 621 L530 599 L552 599 L552 706 L535 706 L530 701 C525 695 500 702 471 717 L471 716 C448 728 421 740 395 748 L396 749 L396 749 Z " />
<glyph glyph-name="T" unicode="T" horiz-adv-x="864" d="M810 747 L810 748 L810 747 L810 747 Z M364 1 L501 1 L501 21 C477 21 462 38 462 71 L462 736 L680 736 C729 736 786 708 816 669 L825 657 L842 657 C833 680 820 712 810 736 L810 747 C810 748 810 749 810 750 L810 751 L56 751 L56 750 C55 748 54 745 53 743 L56 750 L56 739 C46 714 32 680 23 657 L40 657 L49 669 C78 708 135 736 184 736 L404 736 L404 71 C404 38 389 21 365 21 L364 1 L364 1 Z M811 748 L811 751 L810 751 L811 748 L811 748 Z " />
<glyph glyph-name="U" unicode="U" horiz-adv-x="718" d="M688 39 C666 32 649 44 649 78 L649 750 L552 750 L552 730 C576 730 591 713 591 680 L591 194 C546 98 434 28 323 28 C213 28 133 116 133 238 L133 750 L36 750 L36 730 C60 730 75 713 75 680 L75 238 C75 94 169 -10 299 -10 C420 -10 543 64 591 167 L591 0 L620 0 L649 8 C649 11 686 19 688 19 L688 39 L688 39 Z " />
<glyph glyph-name="V" unicode="V" horiz-adv-x="779" d="M87 631 C178 417 268 203 359 -10 L371 -10 C468 202 565 414 663 625 C690 683 724 725 746 725 L753 725 L753 750 L592 750 L592 725 L606 725 C649 725 665 689 646 637 L392 65 L153 636 C134 688 145 725 182 725 L194 725 L194 750 L18 750 L18 725 L23 725 C37 725 64 686 88 631 L87 631 L87 631 Z " />
<glyph glyph-name="W" unicode="W" horiz-adv-x="1151" d="M557 645 L557 645 L611 500 L375 71 L140 655 C126 696 133 725 158 725 L166 725 L166 750 L17 750 L17 725 C37 725 54 701 73 658 C159 435 246 213 331 -10 L346 -10 L619 479 C680 316 741 153 802 -10 L817 -10 L1055 651 C1074 699 1100 726 1131 726 L1131 751 L969 751 L969 726 L982 726 C1027 726 1047 692 1031 646 L1031 646 L834 82 C764 270 692 459 622 646 C605 692 618 726 655 726 L666 726 L666 751 L492 751 L492 726 C515 726 537 696 555 646 L557 645 L557 645 Z " />
<glyph glyph-name="X" unicode="X" horiz-adv-x="769" d="M756 750 L619 750 L619 730 L628 730 C657 730 662 709 640 680 L413 402 L197 680 C176 709 175 730 196 730 L202 730 L202 750 L65 750 L65 730 C82 730 105 709 132 675 L372 365 L124 69 C95 37 65 20 35 20 L35 0 L169 0 L169 20 L160 20 C129 20 125 43 151 75 L380 356 L597 75 C620 45 625 20 602 20 L596 20 L596 0 L734 0 L734 20 C717 20 694 41 667 75 L667 75 L416 399 L663 680 C694 713 725 730 756 730 L756 750 L756 750 Z " />
<glyph glyph-name="Y" unicode="Y" horiz-adv-x="715" d="M160 750 L22 750 L22 730 C38 730 57 713 80 683 L334 329 L334 90 C334 49 313 20 284 20 L275 20 L275 0 L452 0 L452 20 L443 20 C414 20 393 49 393 90 L393 338 L625 682 C650 714 676 730 707 730 L707 750 L584 750 L584 730 L595 730 C627 730 634 707 613 675 L391 342 L147 684 C130 711 132 730 152 730 L159 730 L160 750 L160 750 Z " />
<glyph glyph-name="Z" unicode="Z" horiz-adv-x="719" d="M80 655 L85 667 C101 705 155 733 214 735 L634 738 L24 12 L24 0 L695 0 L697 9 C699 9 707 45 719 97 L702 97 L695 85 C672 46 612 18 550 17 L550 17 L96 13 L699 738 L699 750 L69 750 L68 734 C68 734 64 681 62 655 L80 655 L80 655 Z " />
<glyph glyph-name="bracketleft" unicode="&#x5b;" horiz-adv-x="285" d="M125 735 L335 735 L335 750 L108 750 L108 -195 L335 -195 L335 -180 L125 -180 L125 735 L125 735 Z " />
<glyph glyph-name="backslash" unicode="&#x5c;" horiz-adv-x="337" d="M37 770 L297 -80 L327 -80 L67 770 L37 770 L37 770 Z " />
<glyph glyph-name="bracketright" unicode="&#x5d;" horiz-adv-x="288" d="M161 735 L161 -180 L-49 -180 L-49 -195 L178 -195 L178 750 L-49 750 L-49 735 L161 735 L161 735 Z " />
<glyph glyph-name="asciicircum" unicode="&#x5e;" horiz-adv-x="452" d="M244 765 C241 770 232 783 226 783 C221 783 212 770 209 765 L77 563 L84 558 L226 726 L368 558 L375 563 L244 765 L244 765 Z " />
<glyph glyph-name="underscore" unicode="&#x5f;" horiz-adv-x="657" d="M5 -50 L5 -78 L652 -78 L652 -50 L5 -50 L5 -50 Z " />
<glyph glyph-name="grave" unicode="&#x60;" horiz-adv-x="452" d="M19 755 C19 750 49 721 90 686 L230 563 L236 570 L113 709 C78 750 50 779 44 779 C31 779 19 768 19 755 L19 755 Z " />
<glyph glyph-name="a" unicode="a" horiz-adv-x="601" d="M611 78 L604 81 C599 52 575 31 546 31 C513 31 489 52 489 81 L489 358 C489 459 416 510 314 510 C174 510 73 412 73 360 C73 340 84 325 98 325 C117 325 131 340 131 350 C131 362 111 382 111 392 C111 432 195 506 310 506 C385 506 439 463 439 377 L439 266 C137 213 53 183 53 81 C53 29 114 -9 199 -9 C263 -9 348 21 439 90 C439 35 470 -4 525 -4 C566 -4 603 31 611 79 L611 78 L611 78 Z M439 264 L439 92 C370 40 292 18 226 18 C155 18 104 47 104 87 C104 189 177 217 439 263 L439 264 L439 264 Z " />
<glyph glyph-name="b" unicode="b" horiz-adv-x="601" d="M10 726 C22 718 29 694 29 666 L29 125 L27 125 C28 123 29 121 30 119 L30 0 L33 0 L54 75 L57 75 C103 24 190 -10 288 -10 C444 -10 557 100 557 251 C557 398 435 505 267 505 C208 505 131 467 80 414 L80 750 L55 750 C49 748 39 743 31 743 C31 742 13 738 12 738 L10 726 L10 726 Z M81 112 L81 407 C128 456 198 490 252 490 C397 490 502 388 502 247 C502 103 413 -2 290 -2 C195 -2 110 46 81 113 L81 112 L81 112 Z " />
<glyph glyph-name="c" unicode="c" horiz-adv-x="577" d="M547 128 L545 129 C512 55 411 2 305 2 C183 2 95 112 95 264 C95 405 189 507 319 507 C401 507 475 464 497 405 C502 391 513 380 522 380 C542 380 552 391 547 405 C525 466 429 510 320 510 C161 510 45 396 45 239 C45 95 151 -10 298 -10 C407 -10 511 48 547 128 L547 128 Z " />
<glyph glyph-name="d" unicode="d" horiz-adv-x="635" d="M620 37 C597 29 581 40 581 75 L581 750 L556 750 L531 743 L531 741 C524 739 517 737 511 736 L511 724 C523 716 530 692 530 664 L530 406 C499 463 429 510 356 510 C158 510 45 402 45 254 C45 104 162 -5 323 -5 C409 -5 495 28 531 75 L531 0 L556 0 C575 5 601 12 620 17 L620 37 L620 37 Z M531 375 L531 79 C501 42 424 16 344 16 C200 16 96 121 96 267 C96 399 192 495 362 495 C439 495 512 438 531 375 L531 375 Z " />
<glyph glyph-name="e" unicode="e" horiz-adv-x="653" d="M108 340 L623 340 C602 458 496 510 363 510 C179 510 45 426 45 235 C45 93 166 -10 334 -10 C462 -10 577 51 608 135 L607 135 C579 58 467 3 339 3 C199 3 98 109 98 255 C98 286 102 314 109 339 L108 340 L108 340 Z M568 343 L110 342 C142 455 239 506 363 506 C464 506 547 456 568 343 L568 343 Z " />
<glyph glyph-name="f" unicode="f" horiz-adv-x="369" d="M152 20 C141 20 133 24 133 35 L133 474 L359 474 L359 500 L133 500 C133 639 197 740 311 740 C370 740 431 635 480 635 C506 635 525 654 525 680 C525 724 443 755 329 755 C172 755 83 648 83 500 L-20 480 L-20 474 L83 474 L83 35 C83 24 75 20 64 20 L64 0 L152 0 L152 20 L152 20 Z " />
<glyph glyph-name="g" unicode="g" horiz-adv-x="610" d="M629 459 C629 476 616 489 597 489 C557 489 520 463 503 425 C468 477 396 510 306 510 C178 510 85 443 85 350 C85 266 160 203 268 191 C146 185 62 152 62 107 C62 60 114 24 189 18 C110 -4 55 -49 55 -93 C55 -172 165 -230 316 -230 C467 -230 577 -167 577 -79 C577 6 509 67 354 67 L215 67 C143 67 91 90 91 122 C91 160 182 188 307 188 C435 188 527 256 527 350 C527 377 519 402 505 423 C518 444 542 458 568 458 C580 458 597 438 609 438 C621 438 630 447 630 460 L629 459 L629 459 Z M306 192 C207 192 135 259 135 351 C135 442 207 508 306 508 C405 508 476 442 476 351 C476 259 405 192 306 192 L306 192 Z M193 19 C199 19 205 19 211 19 L347 19 C477 19 534 -26 534 -88 C534 -167 442 -225 315 -225 C187 -225 94 -164 94 -79 C94 -38 134 1 192 19 L193 19 L193 19 Z " />
<glyph glyph-name="h" unicode="h" horiz-adv-x="545" d="M28 726 C40 718 47 694 47 666 L47 35 C47 24 39 20 28 20 L28 0 L116 0 L116 20 C105 20 97 24 97 35 L97 371 C143 431 231 475 308 475 C396 475 446 429 446 365 L446 35 C446 24 438 20 427 20 L427 0 L515 0 L515 20 C504 20 496 24 496 35 L496 365 C496 449 438 510 336 510 C256 510 156 454 97 376 L97 750 L72 750 C66 748 56 743 48 743 C48 742 30 738 29 738 L28 726 L28 726 Z " />
<glyph glyph-name="i" unicode="i" horiz-adv-x="156" d="M114 647 C114 690 50 690 50 647 C50 605 114 605 114 647 L114 647 Z M38 476 C50 468 57 444 57 416 L57 35 C57 24 49 20 38 20 L38 0 L126 0 L126 20 C115 20 107 24 107 35 L107 500 L82 500 C76 498 66 493 58 493 C58 492 40 488 39 488 L38 476 L38 476 Z " />
<glyph glyph-name="j" unicode="j" horiz-adv-x="189" d="M106 647 C106 690 42 690 42 647 C42 605 106 605 106 647 L106 647 Z M30 476 C42 468 49 444 49 416 L49 29 C49 -47 32 -112 8 -126 C-25 -126 -73 -100 -106 -100 C-132 -100 -151 -117 -151 -140 C-151 -168 -126 -187 -91 -185 C-85 -185 -41 -162 14 -130 C63 -102 99 -35 99 29 L99 500 L74 500 C68 498 58 493 50 493 C50 492 32 488 31 488 L30 476 L30 476 Z " />
<glyph glyph-name="k" unicode="k" horiz-adv-x="496" d="M28 726 C40 718 47 694 47 666 L47 35 C47 24 39 20 28 20 L28 0 L116 0 L116 20 C105 20 97 24 97 35 L97 280 L352 60 C364 50 374 41 382 34 L399 19 C399 18 403 -1 403 -1 L492 -1 C490 1 478 15 474 19 C471 19 456 32 432 53 L150 304 L331 415 C397 456 448 480 476 480 L476 500 L326 500 L326 480 L340 480 C385 480 358 443 276 390 L95 280 L95 750 L70 750 C64 748 54 743 46 743 C46 742 28 738 27 738 L28 726 L28 726 Z " />
<glyph glyph-name="l" unicode="l" horiz-adv-x="146" d="M28 726 C40 718 47 694 47 666 L47 35 C47 24 39 20 28 20 L28 0 L116 0 L116 20 C105 20 97 24 97 35 L97 750 L72 750 C66 748 56 743 48 743 C48 742 30 738 29 738 L28 726 L28 726 Z " />
<glyph glyph-name="m" unicode="m" horiz-adv-x="936" d="M28 476 C40 468 47 444 47 416 L47 35 C47 24 39 20 28 20 L28 0 L116 0 L116 20 C105 20 97 24 97 35 L97 376 C140 432 223 473 294 473 C397 473 442 428 442 365 L442 35 C442 24 434 20 423 20 L423 0 L511 0 L511 20 C500 20 492 24 492 35 L492 365 C492 369 492 373 492 377 C536 432 618 471 690 471 C793 471 838 426 838 363 L838 33 C838 22 830 18 819 18 L819 -2 L907 -2 L907 18 C896 18 888 22 888 33 L888 363 C888 447 834 508 710 508 C640 508 549 455 492 381 C484 455 429 507 314 507 C245 507 154 453 97 378 L97 497 L72 497 C66 495 56 490 48 490 C48 489 30 485 29 485 L28 476 L28 476 Z " />
<glyph glyph-name="n" unicode="n" horiz-adv-x="541" d="M28 476 C40 468 47 444 47 416 L47 35 C47 24 39 20 28 20 L28 0 L116 0 L116 20 C105 20 97 24 97 35 L97 359 C153 432 237 485 298 485 C390 485 442 412 442 311 L442 35 C442 24 434 20 423 20 L423 0 L511 0 L511 20 C500 20 492 24 492 35 L492 311 C492 426 428 510 314 510 C251 510 160 450 97 367 L97 500 L72 500 C66 498 56 493 48 493 C48 492 30 488 29 488 L28 476 L28 476 Z " />
<glyph glyph-name="o" unicode="o" horiz-adv-x="694" d="M100 250 C100 398 204 506 347 506 C490 506 593 398 593 250 C593 102 490 -6 347 -6 C204 -6 100 102 100 250 L100 250 Z M45 250 C45 99 172 -10 347 -10 C522 -10 649 99 649 250 C649 401 522 510 347 510 C172 510 45 401 45 250 L45 250 Z " />
<glyph glyph-name="p" unicode="p" horiz-adv-x="611" d="M13 476 C25 468 32 444 32 416 L32 -185 C32 -196 24 -200 13 -200 L13 -220 L101 -220 L101 -200 C90 -200 82 -196 82 -185 L82 58 C122 19 182 -5 246 -5 C432 -5 566 119 566 254 C566 402 444 510 276 510 C194 510 115 478 82 434 L82 500 L57 500 C51 498 41 493 33 493 C33 492 15 488 14 488 L13 476 L13 476 Z M83 130 L83 413 C115 457 184 488 253 488 C403 488 512 383 512 237 C512 117 402 7 250 7 C175 7 105 58 83 129 L83 130 L83 130 Z " />
<glyph glyph-name="q" unicode="q" horiz-adv-x="601" d="M596 -200 C585 -200 577 -196 577 -185 L577 500 L574 500 L558 440 L546 429 C502 478 423 510 336 510 C145 510 37 402 37 254 C37 104 158 -5 325 -5 C414 -5 496 24 527 65 L527 -186 C527 -197 519 -201 508 -201 L508 -221 L596 -221 L596 -200 L596 -200 Z M527 388 L527 83 C498 43 424 15 345 15 C197 15 89 120 89 266 C89 401 177 498 333 498 C420 498 499 452 527 387 L527 388 L527 388 Z " />
<glyph glyph-name="r" unicode="r" horiz-adv-x="425" d="M29 476 C41 468 48 444 48 416 L48 35 C48 24 40 20 29 20 L29 0 L117 0 L117 20 C106 20 98 24 98 35 L98 375 C143 441 220 488 286 488 C327 488 357 473 357 453 C357 416 416 415 416 453 C416 487 371 511 309 511 C236 511 149 457 98 382 L98 500 L73 500 C67 498 57 493 49 493 C49 492 31 488 30 488 L29 476 L29 476 Z " />
<glyph glyph-name="s" unicode="s" horiz-adv-x="511" d="M60 128 L60 46 L74 46 L77 49 C77 49 145 17 173 6 L173 7 C205 -4 241 -10 278 -10 C384 -10 461 45 461 121 C461 171 399 229 289 269 C167 313 98 367 98 406 C98 465 153 507 228 507 C265 507 301 500 332 489 C373 472 407 438 417 404 L421 392 L435 392 L435 464 L422 464 L418 463 C421 464 392 476 348 492 C348 492 321 502 318 503 L317 501 C290 508 260 512 229 512 C133 512 63 461 63 391 C63 343 137 281 268 233 C368 197 424 148 424 109 C424 43 363 -5 279 -5 C243 -5 208 2 177 15 C132 33 91 76 80 117 L76 130 L60 128 L60 128 Z " />
<glyph glyph-name="t" unicode="t" horiz-adv-x="395" d="M355 500 L156 500 L156 620 L153 620 L41 500 L41 490 L106 490 L106 129 C106 32 165 -10 246 -10 C298 -10 356 23 385 68 L380 71 C359 38 309 14 261 14 C200 14 155 46 155 118 L156 474 L355 474 L355 500 L355 500 Z " />
<glyph glyph-name="u" unicode="u" horiz-adv-x="570" d="M457 479 C468 479 476 475 476 464 L476 130 C444 69 352 25 249 25 C159 25 93 87 93 173 L93 500 L24 500 L24 480 C35 480 43 476 43 465 L43 173 C43 67 120 -10 226 -10 C336 -10 438 46 475 125 L475 0 L500 0 C516 4 538 10 554 14 L554 34 C535 29 525 43 525 76 L525 500 L475 500 L475 499 L456 499 L457 479 L457 479 Z " />
<glyph glyph-name="v" unicode="v" horiz-adv-x="508" d="M494 500 L442 500 L442 480 C449 480 442 458 427 425 L427 425 L255 54 L102 444 C95 466 93 479 99 479 L99 499 L14 499 L14 479 C27 479 41 458 55 424 L55 424 L226 -11 L241 -11 L450 424 C466 458 482 479 496 479 L494 500 L494 500 Z " />
<glyph glyph-name="w" unicode="w" horiz-adv-x="781" d="M406 500 L319 500 L319 480 C330 480 341 464 352 437 C362 408 372 379 381 350 L211 -10 L226 -10 L389 326 L504 -10 L518 -10 L721 425 C737 459 753 480 766 480 L766 500 L714 500 L714 480 C721 480 714 458 700 425 L700 425 L537 61 C496 182 454 304 414 425 C402 459 397 480 406 480 L406 500 L406 500 Z M99 500 L12 500 L12 480 C25 480 36 464 48 436 L213 -10 L244 56 C199 179 153 303 109 425 C96 459 91 480 99 480 L99 500 L99 500 Z " />
<glyph glyph-name="x" unicode="x" horiz-adv-x="533" d="M491 500 L446 500 L446 480 C447 480 439 470 426 454 L276 271 L126 446 C108 467 97 481 98 481 L98 501 L16 501 L16 481 C29 481 53 460 82 426 L82 426 L241 241 L72 67 C43 38 22 21 9 21 L9 1 L51 1 L51 11 L51 21 L91 63 C92 64 104 77 104 77 L251 231 L395 63 C416 38 430 21 429 21 L429 1 L512 1 L512 21 C499 21 475 42 446 76 L446 76 L289 259 C335 314 381 370 428 425 C457 459 480 480 493 480 L491 500 L491 500 Z " />
<glyph glyph-name="y" unicode="y" horiz-adv-x="528" d="M98 500 L16 500 L16 480 C29 480 44 463 62 433 L312 -3 C293 -56 275 -109 256 -162 C249 -181 235 -194 229 -194 C208 -194 201 -175 180 -175 C156 -175 139 -192 139 -216 C139 -242 158 -260 184 -260 C205 -260 250 -221 269 -168 C299 -83 329 2 359 87 C399 200 438 313 478 426 C490 460 503 481 516 481 L516 501 L462 501 L462 481 L464 481 C470 481 466 458 456 426 C456 426 344 86 333 56 L121 426 C103 459 91 481 97 481 L98 500 L98 500 Z " />
<glyph glyph-name="z" unicode="z" horiz-adv-x="565" d="M64 500 C64 500 63 496 62 491 L61 491 L63 500 L64 500 L64 500 Z M60 486 C60 487 61 490 61 491 L59 491 C59 491 52 465 43 430 L62 430 L69 438 C89 462 135 480 181 483 L462 487 L39 12 L39 0 L519 0 C519 14 521 25 526 70 L507 70 L501 62 C484 38 440 20 394 17 L102 13 L523 488 L523 500 L65 500 L65 491 L60 491 C60 489 59 487 58 486 L60 486 L60 486 Z " />
<glyph glyph-name="bar" unicode="&#x7c;" horiz-adv-x="159" d="M60 800 L60 -250 L99 -250 L99 800 L60 800 L60 800 Z " />
<glyph glyph-name="asciitilde" unicode="&#x7e;" horiz-adv-x="452" d="M20 310 C20 348 49 376 89 376 C165 376 274 311 350 311 C399 311 435 351 435 406 L432 406 C432 371 403 346 362 346 C286 346 176 411 100 411 C52 411 18 369 18 310 L20 310 L20 310 Z " />
<glyph glyph-name="exclamdown" unicode="&#xa1;" horiz-adv-x="201" d="M65 470 C65 423 135 423 135 470 C135 516 65 516 65 471 L65 470 L65 470 Z M100 -254 C123 -254 134 -219 131 -170 C131 -170 105 157 105 291 L96 291 C96 157 70 -170 70 -170 C67 -219 77 -254 100 -254 L100 -254 Z " />
<glyph glyph-name="cent" unicode="&#xa2;" horiz-adv-x="577" d="M296 575 L296 509 C149 498 45 388 45 239 C45 96 150 -9 296 -10 L296 -75 L314 -75 L314 -10 C417 -5 513 51 547 127 L545 128 C513 56 417 4 314 1 L314 506 C399 508 475 464 497 404 C502 390 513 379 522 379 C542 379 552 390 547 404 C525 466 426 511 315 509 L315 574 L296 575 L296 575 Z M297 1 C180 6 96 114 96 262 C96 395 179 493 297 504 L297 1 L297 1 Z " />
<glyph glyph-name="acute" unicode="&#xb4;" horiz-adv-x="452" d="M233 563 L372 686 C413 723 442 751 442 755 C442 768 431 779 418 779 C414 779 386 750 349 709 L226 570 L233 563 L233 563 Z " />
<glyph glyph-name="questiondown" unicode="&#xbf;" horiz-adv-x="305" d="M145 470 C145 423 215 423 215 470 C215 516 145 516 145 471 L145 470 L145 470 Z M184 326 C184 326 182 142 180 141 C99 141 60 102 24 48 C8 24 -4 -18 -4 -52 C-4 -172 65 -259 160 -259 C187 -259 207 -243 207 -222 C207 -208 196 -197 180 -197 C169 -197 153 -206 142 -206 C65 -206 10 -139 10 -46 C10 -26 20 3 35 25 C61 63 95 91 197 91 C194 90 192 326 192 326 L184 326 L184 326 Z " />
<glyph glyph-name="Agrave" unicode="&#xc0;" horiz-adv-x="719" d="M624 125 L624 125 L399 732 C399 732 389 770 385 770 L379 770 C382 752 366 736 340 732 L344 722 L108 116 C84 63 39 25 -3 25 L-17 25 L-17 0 L157 0 L157 25 L145 25 C108 25 95 63 112 116 L181 295 L500 295 L562 125 C583 67 570 25 531 25 L519 25 L519 0 L709 0 L709 25 L702 25 C678 25 644 67 623 125 L624 125 L624 125 Z M163 1005 C163 999 192 971 233 936 L372 813 L378 820 L256 959 C221 1000 193 1029 188 1029 C175 1029 163 1018 163 1005 L163 1005 Z M183 299 L345 718 L499 299 L183 299 L183 299 Z " />
<glyph glyph-name="Aacute" unicode="&#xc1;" horiz-adv-x="719" d="M376 813 L515 936 C556 973 585 1001 585 1005 C585 1018 573 1029 560 1029 C556 1029 528 1000 492 959 L370 820 L376 813 L376 813 Z M624 125 L624 125 L399 732 C399 732 389 770 385 770 L379 770 C382 752 366 736 340 732 L344 722 L108 116 C84 63 39 25 -3 25 L-17 25 L-17 0 L157 0 L157 25 L145 25 C108 25 95 63 112 116 L181 295 L500 295 L562 125 C583 67 570 25 531 25 L519 25 L519 0 L709 0 L709 25 L702 25 C678 25 644 67 623 125 L624 125 L624 125 Z M183 299 L345 718 L499 299 L183 299 L183 299 Z " />
<glyph glyph-name="Acircumflex" unicode="&#xc2;" horiz-adv-x="719" d="M624 125 L624 125 L399 732 C399 732 389 770 385 770 L379 770 C382 752 366 736 340 732 L344 722 L108 116 C84 63 39 25 -3 25 L-17 25 L-17 0 L157 0 L157 25 L145 25 C108 25 95 63 112 116 L181 295 L500 295 L562 125 C583 67 570 25 531 25 L519 25 L519 0 L709 0 L709 25 L702 25 C678 25 644 67 623 125 L624 125 L624 125 Z M386 1015 C383 1020 374 1033 369 1033 C364 1033 354 1020 351 1015 L219 813 L226 808 L368 977 L511 808 L518 813 L386 1015 L386 1015 Z M183 299 L345 718 L499 299 L183 299 L183 299 Z " />
<glyph glyph-name="Atilde" unicode="&#xc3;" horiz-adv-x="719" d="M163 870 C163 908 192 936 232 936 C307 936 417 871 492 871 C542 871 578 911 578 966 L576 966 C576 931 546 906 504 906 C429 906 319 971 244 971 C196 971 161 929 161 870 L163 870 L163 870 Z M624 125 L624 125 L399 732 C399 732 389 770 385 770 L379 770 C382 752 366 736 340 732 L344 722 L108 116 C84 63 39 25 -3 25 L-17 25 L-17 0 L157 0 L157 25 L145 25 C108 25 95 63 112 116 L181 295 L500 295 L562 125 C583 67 570 25 531 25 L519 25 L519 0 L709 0 L709 25 L702 25 C678 25 644 67 623 125 L624 125 L624 125 Z M183 299 L345 718 L499 299 L183 299 L183 299 Z " />
<glyph glyph-name="Adieresis" unicode="&#xc4;" horiz-adv-x="719" d="M475 897 C475 940 410 941 410 898 C410 856 475 857 475 898 L475 897 L475 897 Z M329 898 C329 941 264 940 264 898 C264 857 329 856 329 898 L329 898 Z M624 126 L624 126 L399 733 C399 733 389 771 385 771 L379 771 C382 753 366 737 340 733 L344 723 L108 117 C84 64 39 26 -3 26 L-17 26 L-17 1 L157 1 L157 26 L145 26 C108 26 95 64 112 117 L181 296 L500 296 L562 126 C583 68 570 26 531 26 L519 26 L519 1 L709 1 L709 26 L702 26 C678 26 644 68 623 126 L624 126 L624 126 Z M183 300 L345 719 L499 300 L183 300 L183 300 Z " />
<glyph glyph-name="Aring" unicode="&#xc5;" horiz-adv-x="719" d="M288 905 C288 953 322 988 370 988 C417 988 451 953 451 905 C451 862 412 822 370 822 C327 822 288 862 288 905 L288 905 Z M273 905 C273 855 319 810 370 810 C420 810 466 855 466 905 C466 960 426 1000 370 1000 C314 1000 273 960 273 905 L273 905 Z M624 125 L624 125 L399 732 C399 732 389 770 385 770 L379 770 C382 752 366 736 340 732 L344 722 L108 116 C84 63 39 25 -3 25 L-17 25 L-17 0 L157 0 L157 25 L145 25 C108 25 95 63 112 116 L181 295 L500 295 L562 125 C583 67 570 25 531 25 L519 25 L519 0 L709 0 L709 25 L702 25 C678 25 644 67 623 125 L624 125 L624 125 Z M183 299 L345 718 L499 299 L183 299 L183 299 Z " />
<glyph glyph-name="Egrave" unicode="&#xc8;" horiz-adv-x="642" d="M134 1005 C134 999 163 971 204 936 L343 813 L350 820 L227 959 C192 1000 164 1029 158 1029 C145 1029 134 1018 134 1005 L134 1005 Z M51 730 L60 730 C89 730 110 701 110 660 L110 90 C110 49 89 20 60 20 L51 20 L51 0 L593 0 L593 1 L594 1 C598 24 604 59 608 82 L591 82 L585 70 C565 31 506 3 445 3 L248 3 C178 3 168 35 168 80 L168 385 L383 385 C429 385 473 353 487 309 L491 296 L508 296 L508 478 L491 478 L487 465 C473 421 429 389 383 389 L168 389 L168 747 L443 747 C489 747 537 715 556 671 L562 658 L579 658 C576 684 571 723 568 749 L568 750 L51 750 L51 730 L51 730 Z " />
<glyph glyph-name="Eacute" unicode="&#xc9;" horiz-adv-x="642" d="M347 813 L486 936 C527 973 556 1001 556 1005 C556 1018 545 1029 532 1029 C528 1029 500 1000 463 959 L340 820 L347 813 L347 813 Z M51 730 L60 730 C89 730 110 701 110 660 L110 90 C110 49 89 20 60 20 L51 20 L51 0 L593 0 L593 1 L594 1 C598 24 604 59 608 82 L591 82 L585 70 C565 31 506 3 445 3 L248 3 C178 3 168 35 168 80 L168 385 L383 385 C429 385 473 353 487 309 L491 296 L508 296 L508 478 L491 478 L487 465 C473 421 429 389 383 389 L168 389 L168 747 L443 747 C489 747 537 715 556 671 L562 658 L579 658 C576 684 571 723 568 749 L568 750 L51 750 L51 730 L51 730 Z " />
<glyph glyph-name="Ecircumflex" unicode="&#xca;" horiz-adv-x="642" d="M358 1015 C355 1020 346 1033 340 1033 C334 1033 325 1020 322 1015 L191 813 L198 808 L340 976 L482 808 L489 813 L358 1015 L358 1015 Z M51 730 L60 730 C89 730 110 701 110 660 L110 90 C110 49 89 20 60 20 L51 20 L51 0 L593 0 L593 1 L594 1 C598 24 604 59 608 82 L591 82 L585 70 C565 31 506 3 445 3 L248 3 C178 3 168 35 168 80 L168 385 L383 385 C429 385 473 353 487 309 L491 296 L508 296 L508 478 L491 478 L487 465 C473 421 429 389 383 389 L168 389 L168 747 L443 747 C489 747 537 715 556 671 L562 658 L579 658 C576 684 571 723 568 749 L568 750 L51 750 L51 730 L51 730 Z " />
<glyph glyph-name="Edieresis" unicode="&#xcb;" horiz-adv-x="642" d="M445 897 C445 940 380 939 380 897 C380 856 445 855 445 897 L445 897 Z M300 897 C300 940 235 941 235 898 C235 856 300 857 300 898 L300 897 L300 897 Z M51 731 L60 731 C89 731 110 702 110 661 L110 91 C110 50 89 21 60 21 L51 21 L51 1 L593 1 L593 2 L594 2 C598 25 604 60 608 83 L591 83 L585 71 C565 32 506 4 445 4 L248 4 C178 4 168 36 168 81 L168 386 L383 386 C429 386 473 354 487 310 L491 297 L508 297 L508 479 L491 479 L487 466 C473 422 429 390 383 390 L168 390 L168 748 L443 748 C489 748 537 716 556 672 L562 659 L579 659 C576 685 571 724 568 750 L568 751 L51 751 L51 731 L51 731 Z " />
<glyph glyph-name="Igrave" unicode="&#xcc;" horiz-adv-x="273" d="M-62 1005 C-62 999 -33 971 8 936 L147 813 L154 820 L31 959 C-4 1000 -32 1029 -38 1029 C-51 1029 -62 1018 -62 1005 L-62 1005 Z M213 20 C189 20 174 37 174 70 L174 680 C174 713 189 730 213 730 L213 750 L76 750 L76 730 C100 730 115 713 115 680 L115 70 C115 37 100 20 76 20 L76 0 L213 0 L213 20 L213 20 Z " />
<glyph glyph-name="Iacute" unicode="&#xcd;" horiz-adv-x="273" d="M151 813 L290 936 C331 973 360 1001 360 1005 C360 1018 349 1029 336 1029 C332 1029 304 1000 267 959 L144 820 L151 813 L151 813 Z M213 20 C189 20 174 37 174 70 L174 680 C174 713 189 730 213 730 L213 750 L76 750 L76 730 C100 730 115 713 115 680 L115 70 C115 37 100 20 76 20 L76 0 L213 0 L213 20 L213 20 Z " />
<glyph glyph-name="Icircumflex" unicode="&#xce;" horiz-adv-x="273" d="M162 1015 C159 1020 150 1033 144 1033 C138 1033 129 1020 126 1015 L-5 813 L2 808 L144 976 L286 808 L293 813 L162 1015 L162 1015 Z M213 20 C189 20 174 37 174 70 L174 680 C174 713 189 730 213 730 L213 750 L76 750 L76 730 C100 730 115 713 115 680 L115 70 C115 37 100 20 76 20 L76 0 L213 0 L213 20 L213 20 Z " />
<glyph glyph-name="Idieresis" unicode="&#xcf;" horiz-adv-x="273" d="M249 897 C249 940 184 939 184 897 C184 856 249 855 249 897 L249 897 Z M104 897 C104 940 39 941 39 898 C39 856 104 857 104 898 L104 897 L104 897 Z M213 21 C189 21 174 38 174 71 L174 681 C174 714 189 731 213 731 L213 751 L76 751 L76 731 C100 731 115 714 115 681 L115 71 C115 38 100 21 76 21 L76 1 L213 1 L213 21 L213 21 Z " />
<glyph glyph-name="Ntilde" unicode="&#xd1;" horiz-adv-x="786" d="M185 870 C185 908 214 936 254 936 C329 936 439 871 514 871 C564 871 600 911 600 966 L597 966 C597 931 567 906 526 906 C450 906 341 971 265 971 C217 971 182 929 182 870 L185 870 L185 870 Z M28 730 C51 730 72 718 96 694 L95 70 L95 70 C95 37 80 20 56 20 L56 0 L151 0 L151 20 C127 20 112 37 112 70 L112 70 L110 678 C297 452 483 225 671 0 L683 0 L687 680 L687 680 C687 713 702 730 726 730 L726 750 L631 750 L631 730 C655 730 670 713 670 680 L671 93 C489 312 307 531 125 750 L29 750 L28 730 L28 730 Z " />
<glyph glyph-name="Ograve" unicode="&#xd2;" horiz-adv-x="918" d="M125 375 C125 596 264 756 456 756 C655 756 799 596 799 375 C799 154 652 -6 448 -6 C261 -6 125 154 125 375 L125 375 Z M61 375 C61 152 223 -10 447 -10 C688 -10 863 152 863 375 C863 598 692 760 457 760 C227 760 61 598 61 375 L61 375 Z M251 1005 C251 999 280 971 321 936 L460 813 L467 820 L344 959 C309 1000 281 1029 275 1029 C262 1029 251 1018 251 1005 L251 1005 Z " />
<glyph glyph-name="Oacute" unicode="&#xd3;" horiz-adv-x="918" d="M464 813 L603 936 C644 973 673 1001 673 1005 C673 1018 662 1029 649 1029 C645 1029 617 1000 580 959 L457 820 L464 813 L464 813 Z M125 375 C125 596 264 756 456 756 C655 756 799 596 799 375 C799 154 652 -6 448 -6 C261 -6 125 154 125 375 L125 375 Z M61 375 C61 152 223 -10 447 -10 C688 -10 863 152 863 375 C863 598 692 760 457 760 C227 760 61 598 61 375 L61 375 Z " />
<glyph glyph-name="Ocircumflex" unicode="&#xd4;" horiz-adv-x="918" d="M125 375 C125 596 264 756 456 756 C655 756 799 596 799 375 C799 154 652 -6 448 -6 C261 -6 125 154 125 375 L125 375 Z M61 375 C61 152 223 -10 447 -10 C688 -10 863 152 863 375 C863 598 692 760 457 760 C227 760 61 598 61 375 L61 375 Z M475 1015 C472 1020 463 1033 457 1033 C451 1033 442 1020 439 1015 L308 813 L315 808 L457 976 L599 808 L606 813 L475 1015 L475 1015 Z " />
<glyph glyph-name="Otilde" unicode="&#xd5;" horiz-adv-x="918" d="M251 870 C251 908 280 936 320 936 C395 936 505 871 580 871 C630 871 666 911 666 966 L663 966 C663 931 633 906 592 906 C516 906 407 971 331 971 C283 971 248 929 248 870 L251 870 L251 870 Z M125 375 C125 596 264 756 456 756 C655 756 799 596 799 375 C799 154 652 -6 448 -6 C261 -6 125 154 125 375 L125 375 Z M61 375 C61 152 223 -10 447 -10 C688 -10 863 152 863 375 C863 598 692 760 457 760 C227 760 61 598 61 375 L61 375 Z " />
<glyph glyph-name="Odieresis" unicode="&#xd6;" horiz-adv-x="918" d="M562 897 C562 940 497 939 497 897 C497 856 562 855 562 897 L562 897 Z M417 897 C417 940 352 941 352 898 C352 856 417 857 417 898 L417 897 L417 897 Z M125 376 C125 597 264 757 456 757 C655 757 799 597 799 376 C799 155 652 -5 448 -5 C261 -5 125 155 125 376 L125 376 Z M61 376 C61 153 223 -9 447 -9 C688 -9 863 153 863 376 C863 599 692 761 457 761 C227 761 61 599 61 376 L61 376 Z " />
<glyph glyph-name="Oslash" unicode="&#xd8;" horiz-adv-x="918" d="M63 -12 C63 -12 103 26 174 94 C242 28 337 -11 447 -11 C688 -11 863 151 863 374 C863 484 821 579 751 647 C788 683 826 720 865 757 L861 761 C822 724 784 687 747 651 C675 719 574 759 457 759 C227 759 61 597 61 374 C61 262 102 166 171 98 C100 30 60 -8 60 -8 L63 -12 L63 -12 Z M721 627 C499 414 316 238 199 126 C153 191 126 277 126 375 C126 596 265 756 457 756 C567 756 660 707 721 626 L721 627 L721 627 Z M724 621 C772 556 800 471 800 374 C800 153 653 -7 449 -7 C347 -7 260 41 202 120 C319 232 502 408 724 622 L724 621 L724 621 Z " />
<glyph glyph-name="Ugrave" unicode="&#xd9;" horiz-adv-x="718" d="M156 1005 C156 999 185 971 226 936 L365 813 L372 820 L249 959 C214 1000 186 1029 180 1029 C167 1029 156 1018 156 1005 L156 1005 Z M688 39 C666 32 649 44 649 78 L649 750 L552 750 L552 730 C576 730 591 713 591 680 L591 194 C546 98 434 28 323 28 C213 28 133 116 133 238 L133 750 L36 750 L36 730 C60 730 75 713 75 680 L75 238 C75 94 169 -10 299 -10 C420 -10 543 64 591 167 L591 0 L620 0 L649 8 C649 11 686 19 688 19 L688 39 L688 39 Z " />
<glyph glyph-name="Uacute" unicode="&#xda;" horiz-adv-x="718" d="M369 813 L508 936 C549 973 578 1001 578 1005 C578 1018 567 1029 554 1029 C550 1029 522 1000 485 959 L362 820 L369 813 L369 813 Z M688 39 C666 32 649 44 649 78 L649 750 L552 750 L552 730 C576 730 591 713 591 680 L591 194 C546 98 434 28 323 28 C213 28 133 116 133 238 L133 750 L36 750 L36 730 C60 730 75 713 75 680 L75 238 C75 94 169 -10 299 -10 C420 -10 543 64 591 167 L591 0 L620 0 L649 8 C649 11 686 19 688 19 L688 39 L688 39 Z " />
<glyph glyph-name="Ucircumflex" unicode="&#xdb;" horiz-adv-x="718" d="M380 1015 C377 1020 368 1033 362 1033 C356 1033 347 1020 344 1015 L213 813 L220 808 L362 976 L504 808 L511 813 L380 1015 L380 1015 Z M688 39 C666 32 649 44 649 78 L649 750 L552 750 L552 730 C576 730 591 713 591 680 L591 194 C546 98 434 28 323 28 C213 28 133 116 133 238 L133 750 L36 750 L36 730 C60 730 75 713 75 680 L75 238 C75 94 169 -10 299 -10 C420 -10 543 64 591 167 L591 0 L620 0 L649 8 C649 11 686 19 688 19 L688 39 L688 39 Z " />
<glyph glyph-name="Udieresis" unicode="&#xdc;" horiz-adv-x="718" d="M467 897 C467 940 402 939 402 897 C402 856 467 855 467 897 L467 897 Z M322 897 C322 940 257 941 257 898 C257 856 322 857 322 898 L322 897 L322 897 Z M688 40 C666 33 649 45 649 79 L649 751 L552 751 L552 731 C576 731 591 714 591 681 L591 195 C546 99 434 29 323 29 C213 29 133 117 133 239 L133 751 L36 751 L36 731 C60 731 75 714 75 681 L75 239 C75 95 169 -9 299 -9 C420 -9 543 65 591 168 L591 1 L620 1 L649 9 C649 12 686 20 688 20 L688 40 L688 40 Z " />
<glyph glyph-name="Yacute" unicode="&#xdd;" horiz-adv-x="715" d="M370 813 L509 936 C550 973 579 1001 579 1005 C579 1018 567 1029 554 1029 C550 1029 522 1000 486 959 L364 820 L370 813 L370 813 Z M160 750 L22 750 L22 730 C38 730 57 713 80 683 L334 329 L334 90 C334 49 313 20 284 20 L275 20 L275 0 L452 0 L452 20 L443 20 C414 20 393 49 393 90 L393 338 L625 682 C650 714 676 730 707 730 L707 750 L584 750 L584 730 L595 730 C627 730 634 707 613 675 L391 342 L147 684 C130 711 132 730 152 730 L159 730 L160 750 L160 750 Z " />
<glyph glyph-name="agrave" unicode="&#xe0;" horiz-adv-x="601" d="M611 78 L604 81 C599 52 575 31 546 31 C513 31 489 52 489 81 L489 358 C489 459 416 510 314 510 C174 510 73 412 73 360 C73 340 84 325 98 325 C117 325 131 340 131 350 C131 362 111 382 111 392 C111 432 195 506 310 506 C385 506 439 463 439 377 L439 266 C137 213 53 183 53 81 C53 29 114 -9 199 -9 C263 -9 348 21 439 90 C439 35 470 -4 525 -4 C566 -4 603 31 611 79 L611 78 L611 78 Z M108 756 C108 750 137 722 178 687 L317 564 L324 571 L201 710 C166 751 138 780 132 780 C119 780 108 769 108 756 L108 756 Z M439 264 L439 92 C370 40 292 18 226 18 C155 18 104 47 104 87 C104 189 177 217 439 263 L439 264 L439 264 Z " />
<glyph glyph-name="aacute" unicode="&#xe1;" horiz-adv-x="601" d="M321 563 L460 686 C501 723 530 751 530 755 C530 768 519 779 506 779 C502 779 474 750 437 709 L314 570 L321 563 L321 563 Z M611 78 L604 81 C599 52 575 31 546 31 C513 31 489 52 489 81 L489 358 C489 459 416 510 314 510 C174 510 73 412 73 360 C73 340 84 325 98 325 C117 325 131 340 131 350 C131 362 111 382 111 392 C111 432 195 506 310 506 C385 506 439 463 439 377 L439 266 C137 213 53 183 53 81 C53 29 114 -9 199 -9 C263 -9 348 21 439 90 C439 35 470 -4 525 -4 C566 -4 603 31 611 79 L611 78 L611 78 Z M439 264 L439 92 C370 40 292 18 226 18 C155 18 104 47 104 87 C104 189 177 217 439 263 L439 264 L439 264 Z " />
<glyph glyph-name="acircumflex" unicode="&#xe2;" horiz-adv-x="601" d="M611 78 L604 81 C599 52 575 31 546 31 C513 31 489 52 489 81 L489 358 C489 459 416 510 314 510 C174 510 73 412 73 360 C73 340 84 325 98 325 C117 325 131 340 131 350 C131 362 111 382 111 392 C111 432 195 506 310 506 C385 506 439 463 439 377 L439 266 C137 213 53 183 53 81 C53 29 114 -9 199 -9 C263 -9 348 21 439 90 C439 35 470 -4 525 -4 C566 -4 603 31 611 79 L611 78 L611 78 Z M332 766 C329 771 320 784 314 784 C308 784 299 771 296 766 L165 564 L172 559 L314 727 L456 559 L463 564 L332 766 L332 766 Z M439 264 L439 92 C370 40 292 18 226 18 C155 18 104 47 104 87 C104 189 177 217 439 263 L439 264 L439 264 Z " />
<glyph glyph-name="atilde" unicode="&#xe3;" horiz-adv-x="601" d="M108 620 C108 658 137 686 177 686 C252 686 362 621 437 621 C487 621 523 661 523 716 L520 716 C520 681 490 656 449 656 C373 656 264 721 188 721 C140 721 105 679 105 620 L108 620 L108 620 Z M611 78 L604 81 C599 52 575 31 546 31 C513 31 489 52 489 81 L489 358 C489 459 416 510 314 510 C174 510 73 412 73 360 C73 340 84 325 98 325 C117 325 131 340 131 350 C131 362 111 382 111 392 C111 432 195 506 310 506 C385 506 439 463 439 377 L439 266 C137 213 53 183 53 81 C53 29 114 -9 199 -9 C263 -9 348 21 439 90 C439 35 470 -4 525 -4 C566 -4 603 31 611 79 L611 78 L611 78 Z M439 264 L439 92 C370 40 292 18 226 18 C155 18 104 47 104 87 C104 189 177 217 439 263 L439 264 L439 264 Z " />
<glyph glyph-name="adieresis" unicode="&#xe4;" horiz-adv-x="601" d="M419 647 C419 690 354 689 354 647 C354 606 419 605 419 647 L419 647 Z M274 647 C274 690 209 691 209 648 C209 606 274 607 274 648 L274 647 L274 647 Z M611 79 L604 82 C599 53 575 32 546 32 C513 32 489 53 489 82 L489 359 C489 460 416 511 314 511 C174 511 73 413 73 361 C73 341 84 326 98 326 C117 326 131 341 131 351 C131 363 111 383 111 393 C111 433 195 507 310 507 C385 507 439 464 439 378 L439 267 C137 214 53 184 53 82 C53 30 114 -8 199 -8 C263 -8 348 22 439 91 C439 36 470 -3 525 -3 C566 -3 603 32 611 80 L611 79 L611 79 Z M439 265 L439 93 C370 41 292 19 226 19 C155 19 104 48 104 88 C104 190 177 218 439 264 L439 265 L439 265 Z " />
<glyph glyph-name="aring" unicode="&#xe5;" horiz-adv-x="601" d="M232 655 C232 703 266 738 314 738 C362 738 396 703 396 655 C396 612 357 572 314 572 C271 572 232 612 232 655 L232 655 Z M218 655 C218 605 264 560 314 560 C364 560 410 605 410 655 C410 710 370 750 314 750 C258 750 218 710 218 655 L218 655 Z M611 78 L604 81 C599 52 575 31 546 31 C513 31 489 52 489 81 L489 358 C489 459 416 510 314 510 C174 510 73 412 73 360 C73 340 84 325 98 325 C117 325 131 340 131 350 C131 362 111 382 111 392 C111 432 195 506 310 506 C385 506 439 463 439 377 L439 266 C137 213 53 183 53 81 C53 29 114 -9 199 -9 C263 -9 348 21 439 90 C439 35 470 -4 525 -4 C566 -4 603 31 611 79 L611 78 L611 78 Z M439 264 L439 92 C370 40 292 18 226 18 C155 18 104 47 104 87 C104 189 177 217 439 263 L439 264 L439 264 Z " />
<glyph glyph-name="egrave" unicode="&#xe8;" horiz-adv-x="653" d="M157 755 C157 749 186 721 227 686 L366 563 L373 570 L250 709 C215 750 187 779 181 779 C168 779 157 768 157 755 L157 755 Z M108 340 L623 340 C602 458 496 510 363 510 C179 510 45 426 45 235 C45 93 166 -10 334 -10 C462 -10 577 51 608 135 L607 135 C579 58 467 3 339 3 C199 3 98 109 98 255 C98 286 102 314 109 339 L108 340 L108 340 Z M568 343 L110 342 C142 455 239 506 363 506 C464 506 547 456 568 343 L568 343 Z " />
<glyph glyph-name="eacute" unicode="&#xe9;" horiz-adv-x="653" d="M370 563 L509 686 C550 723 579 751 579 755 C579 768 568 779 555 779 C551 779 523 750 486 709 L363 570 L370 563 L370 563 Z M108 340 L623 340 C602 458 496 510 363 510 C179 510 45 426 45 235 C45 93 166 -10 334 -10 C462 -10 577 51 608 135 L607 135 C579 58 467 3 339 3 C199 3 98 109 98 255 C98 286 102 314 109 339 L108 340 L108 340 Z M568 343 L110 342 C142 455 239 506 363 506 C464 506 547 456 568 343 L568 343 Z " />
<glyph glyph-name="ecircumflex" unicode="&#xea;" horiz-adv-x="653" d="M381 765 C378 770 369 783 363 783 C357 783 348 770 345 765 L214 563 L221 558 L363 726 L505 558 L512 563 L381 765 L381 765 Z M108 340 L623 340 C602 458 496 510 363 510 C179 510 45 426 45 235 C45 93 166 -10 334 -10 C462 -10 577 51 608 135 L607 135 C579 58 467 3 339 3 C199 3 98 109 98 255 C98 286 102 314 109 339 L108 340 L108 340 Z M568 343 L110 342 C142 455 239 506 363 506 C464 506 547 456 568 343 L568 343 Z " />
<glyph glyph-name="edieresis" unicode="&#xeb;" horiz-adv-x="653" d="M468 647 C468 690 403 689 403 647 C403 606 468 605 468 647 L468 647 Z M323 647 C323 690 258 691 258 648 C258 606 323 607 323 648 L323 647 L323 647 Z M108 341 L623 341 C602 459 496 511 363 511 C179 511 45 427 45 236 C45 94 166 -9 334 -9 C462 -9 577 52 608 136 L607 136 C579 59 467 4 339 4 C199 4 98 110 98 256 C98 287 102 315 109 340 L108 341 L108 341 Z M568 344 L110 343 C142 456 239 507 363 507 C464 507 547 457 568 344 L568 344 Z " />
<glyph glyph-name="igrave" unicode="&#xec;" horiz-adv-x="202" d="M-93 756 C-93 750 -64 722 -23 687 L116 564 L123 571 L0 710 C-35 751 -63 780 -69 780 C-82 780 -93 769 -93 756 L-93 756 Z M69 468 C79 471 88 472 88 460 L88 36 C88 25 80 21 69 21 L69 1 L157 1 L157 21 C146 21 138 25 138 36 L138 501 L113 501 C107 499 97 494 89 494 C89 493 71 489 70 489 L69 468 L69 468 Z " />
<glyph glyph-name="iacute" unicode="&#xed;" horiz-adv-x="202" d="M-93 756 C-93 750 -64 722 -23 687 L116 564 L123 571 L0 710 C-35 751 -63 780 -69 780 C-82 780 -93 769 -93 756 L-93 756 Z M69 468 C79 471 88 472 88 460 L88 36 C88 25 80 21 69 21 L69 1 L157 1 L157 21 C146 21 138 25 138 36 L138 501 L113 501 C107 499 97 494 89 494 C89 493 71 489 70 489 L69 468 L69 468 Z " />
<glyph glyph-name="icircumflex" unicode="&#xee;" horiz-adv-x="202" d="M131 766 C128 771 119 784 113 784 C107 784 98 771 95 766 L-36 564 L-29 559 L113 727 L255 559 L262 564 L131 766 L131 766 Z M69 468 C79 471 88 472 88 460 L88 36 C88 25 80 21 69 21 L69 1 L157 1 L157 21 C146 21 138 25 138 36 L138 501 L113 501 C107 499 97 494 89 494 C89 493 71 489 70 489 L69 468 L69 468 Z " />
<glyph glyph-name="idieresis" unicode="&#xef;" horiz-adv-x="202" d="M218 648 C218 691 153 690 153 648 C153 607 218 606 218 648 L218 648 Z M73 648 C73 691 8 692 8 649 C8 607 73 608 73 649 L73 648 L73 648 Z M69 469 C79 472 88 473 88 461 L88 37 C88 26 80 22 69 22 L69 2 L157 2 L157 22 C146 22 138 26 138 37 L138 502 L113 502 C107 500 97 495 89 495 C89 494 71 490 70 490 L69 469 L69 469 Z " />
<glyph glyph-name="ntilde" unicode="&#xf1;" horiz-adv-x="541" d="M63 620 C63 658 92 686 132 686 C207 686 317 621 392 621 C442 621 478 661 478 716 L476 716 C476 681 446 656 404 656 C329 656 219 721 144 721 C96 721 61 679 61 620 L63 620 L63 620 Z M28 476 C40 468 47 444 47 416 L47 35 C47 24 39 20 28 20 L28 0 L116 0 L116 20 C105 20 97 24 97 35 L97 359 C153 432 237 485 298 485 C390 485 442 412 442 311 L442 35 C442 24 434 20 423 20 L423 0 L511 0 L511 20 C500 20 492 24 492 35 L492 311 C492 426 428 510 314 510 C251 510 160 450 97 367 L97 500 L72 500 C66 498 56 493 48 493 C48 492 30 488 29 488 L28 476 L28 476 Z " />
<glyph glyph-name="ograve" unicode="&#xf2;" horiz-adv-x="694" d="M100 250 C100 398 204 506 347 506 C490 506 593 398 593 250 C593 102 490 -6 347 -6 C204 -6 100 102 100 250 L100 250 Z M45 250 C45 99 172 -10 347 -10 C522 -10 649 99 649 250 C649 401 522 510 347 510 C172 510 45 401 45 250 L45 250 Z M141 755 C141 749 170 721 211 686 L350 563 L357 570 L234 709 C199 750 171 779 165 779 C152 779 141 768 141 755 L141 755 Z " />
<glyph glyph-name="oacute" unicode="&#xf3;" horiz-adv-x="694" d="M354 563 L493 686 C534 723 563 751 563 755 C563 768 552 779 539 779 C535 779 507 750 470 709 L347 570 L354 563 L354 563 Z M100 250 C100 398 204 506 347 506 C490 506 593 398 593 250 C593 102 490 -6 347 -6 C204 -6 100 102 100 250 L100 250 Z M45 250 C45 99 172 -10 347 -10 C522 -10 649 99 649 250 C649 401 522 510 347 510 C172 510 45 401 45 250 L45 250 Z " />
<glyph glyph-name="ocircumflex" unicode="&#xf4;" horiz-adv-x="694" d="M100 250 C100 398 204 506 347 506 C490 506 593 398 593 250 C593 102 490 -6 347 -6 C204 -6 100 102 100 250 L100 250 Z M45 250 C45 99 172 -10 347 -10 C522 -10 649 99 649 250 C649 401 522 510 347 510 C172 510 45 401 45 250 L45 250 Z M365 765 C362 770 353 783 347 783 C341 783 332 770 329 765 L198 563 L205 558 L347 726 L489 558 L496 563 L365 765 L365 765 Z " />
<glyph glyph-name="otilde" unicode="&#xf5;" horiz-adv-x="694" d="M141 620 C141 658 170 686 210 686 C285 686 395 621 470 621 C520 621 556 661 556 716 L553 716 C553 681 523 656 482 656 C406 656 297 721 221 721 C173 721 138 679 138 620 L141 620 L141 620 Z M100 250 C100 398 204 506 347 506 C490 506 593 398 593 250 C593 102 490 -6 347 -6 C204 -6 100 102 100 250 L100 250 Z M45 250 C45 99 172 -10 347 -10 C522 -10 649 99 649 250 C649 401 522 510 347 510 C172 510 45 401 45 250 L45 250 Z " />
<glyph glyph-name="odieresis" unicode="&#xf6;" horiz-adv-x="694" d="M452 647 C452 690 387 689 387 647 C387 606 452 605 452 647 L452 647 Z M307 647 C307 690 242 691 242 648 C242 606 307 607 307 648 L307 647 L307 647 Z M100 251 C100 399 204 507 347 507 C490 507 593 399 593 251 C593 103 490 -5 347 -5 C204 -5 100 103 100 251 L100 251 Z M45 251 C45 100 172 -9 347 -9 C522 -9 649 100 649 251 C649 402 522 511 347 511 C172 511 45 402 45 251 L45 251 Z " />
<glyph glyph-name="oslash" unicode="&#xf8;" horiz-adv-x="694" d="M46 -12 C46 -12 77 15 132 62 C186 17 261 -10 348 -10 C523 -10 650 99 650 250 C650 325 619 389 566 435 C593 459 621 483 650 508 L648 512 C619 487 590 462 562 438 C508 483 433 510 346 510 C171 510 44 401 44 250 C44 175 75 111 128 65 C74 18 44 -8 44 -8 L46 -12 L46 -12 Z M538 417 C375 277 240 161 153 86 C119 130 100 187 100 251 C100 399 204 507 347 507 C427 507 494 473 538 418 L538 417 L538 417 Z M541 415 C574 372 593 316 593 252 C593 104 490 -4 347 -4 C268 -4 201 29 157 84 C245 159 380 275 542 415 L541 415 L541 415 Z " />
<glyph glyph-name="ugrave" unicode="&#xf9;" horiz-adv-x="570" d="M457 479 C468 479 476 475 476 464 L476 130 C444 69 352 25 249 25 C159 25 93 87 93 173 L93 500 L24 500 L24 480 C35 480 43 476 43 465 L43 173 C43 67 120 -10 226 -10 C336 -10 438 46 475 125 L475 0 L500 0 C516 4 538 10 554 14 L554 34 C535 29 525 43 525 76 L525 500 L475 500 L475 499 L456 499 L457 479 L457 479 Z M78 754 C78 748 107 720 148 685 L287 562 L293 569 L171 708 C136 749 108 778 103 778 C90 778 78 767 78 754 L78 754 Z " />
<glyph glyph-name="uacute" unicode="&#xfa;" horiz-adv-x="570" d="M291 562 L430 685 C471 722 500 750 500 754 C500 767 488 778 475 778 C471 778 443 749 407 708 L285 569 L291 562 L291 562 Z M457 479 C468 479 476 475 476 464 L476 130 C444 69 352 25 249 25 C159 25 93 87 93 173 L93 500 L24 500 L24 480 C35 480 43 476 43 465 L43 173 C43 67 120 -10 226 -10 C336 -10 438 46 475 125 L475 0 L500 0 C516 4 538 10 554 14 L554 34 C535 29 525 43 525 76 L525 500 L475 500 L475 499 L456 499 L457 479 L457 479 Z " />
<glyph glyph-name="ucircumflex" unicode="&#xfb;" horiz-adv-x="570" d="M457 479 C468 479 476 475 476 464 L476 130 C444 69 352 25 249 25 C159 25 93 87 93 173 L93 500 L24 500 L24 480 C35 480 43 476 43 465 L43 173 C43 67 120 -10 226 -10 C336 -10 438 46 475 125 L475 0 L500 0 C516 4 538 10 554 14 L554 34 C535 29 525 43 525 76 L525 500 L475 500 L475 499 L456 499 L457 479 L457 479 Z M301 764 C298 769 289 782 284 782 C279 782 269 769 266 764 L134 562 L141 557 L283 726 L426 557 L433 562 L301 764 L301 764 Z " />
<glyph glyph-name="udieresis" unicode="&#xfc;" horiz-adv-x="570" d="M390 646 C390 689 325 690 325 647 C325 605 390 606 390 647 L390 646 L390 646 Z M244 647 C244 690 179 689 179 647 C179 606 244 605 244 647 L244 647 Z M457 480 C468 480 476 476 476 465 L476 131 C444 70 352 26 249 26 C159 26 93 88 93 174 L93 501 L24 501 L24 481 C35 481 43 477 43 466 L43 174 C43 68 120 -9 226 -9 C336 -9 438 47 475 126 L475 1 L500 1 C516 5 538 11 554 15 L554 35 C535 30 525 44 525 77 L525 501 L475 501 L475 500 L456 500 L457 480 L457 480 Z " />
<glyph glyph-name="ydieresis" unicode="&#xff;" horiz-adv-x="528" d="M385 647 C385 690 320 689 320 647 C320 606 385 605 385 647 L385 647 Z M240 647 C240 690 175 691 175 648 C175 606 240 607 240 648 L240 647 L240 647 Z M98 501 L16 501 L16 481 C29 481 44 464 62 434 L312 -2 C293 -55 275 -108 256 -161 C249 -180 235 -193 229 -193 C208 -193 201 -174 180 -174 C156 -174 139 -191 139 -215 C139 -241 158 -259 184 -259 C205 -259 250 -220 269 -167 C299 -82 329 3 359 88 C399 201 438 314 478 427 C490 461 503 482 516 482 L516 502 L462 502 L462 482 L464 482 C470 482 466 459 456 427 C456 427 344 87 333 57 L121 427 C103 460 91 482 97 482 L98 501 L98 501 Z " />
<glyph glyph-name="Amacron" unicode="&#x100;" horiz-adv-x="719" d="M152 901 L587 901 L587 936 L152 936 L152 901 L152 901 Z M624 125 L624 125 L399 732 C399 732 389 770 385 770 L379 770 C382 752 366 736 340 732 L344 722 L108 116 C84 63 39 25 -3 25 L-17 25 L-17 0 L157 0 L157 25 L145 25 C108 25 95 63 112 116 L181 295 L500 295 L562 125 C583 67 570 25 531 25 L519 25 L519 0 L709 0 L709 25 L702 25 C678 25 644 67 623 125 L624 125 L624 125 Z M183 299 L345 718 L499 299 L183 299 L183 299 Z " />
<glyph glyph-name="amacron" unicode="&#x101;" horiz-adv-x="601" d="M97 651 L531 651 L531 686 L97 686 L97 651 L97 651 Z M611 78 L604 81 C599 52 575 31 546 31 C513 31 489 52 489 81 L489 358 C489 459 416 510 314 510 C174 510 73 412 73 360 C73 340 84 325 98 325 C117 325 131 340 131 350 C131 362 111 382 111 392 C111 432 195 506 310 506 C385 506 439 463 439 377 L439 266 C137 213 53 183 53 81 C53 29 114 -9 199 -9 C263 -9 348 21 439 90 C439 35 470 -4 525 -4 C566 -4 603 31 611 79 L611 78 L611 78 Z M439 264 L439 92 C370 40 292 18 226 18 C155 18 104 47 104 87 C104 189 177 217 439 263 L439 264 L439 264 Z " />
<glyph glyph-name="Abreve" unicode="&#x102;" horiz-adv-x="719" d="M196 995 C199 934 272 889 370 889 C467 889 540 933 543 994 L533 995 C531 954 462 924 370 924 C277 924 208 954 206 996 L196 995 L196 995 Z M624 125 L624 125 L399 732 C399 732 389 770 385 770 L379 770 C382 752 366 736 340 732 L344 722 L108 116 C84 63 39 25 -3 25 L-17 25 L-17 0 L157 0 L157 25 L145 25 C108 25 95 63 112 116 L181 295 L500 295 L562 125 C583 67 570 25 531 25 L519 25 L519 0 L709 0 L709 25 L702 25 C678 25 644 67 623 125 L624 125 L624 125 Z M183 299 L345 718 L499 299 L183 299 L183 299 Z " />
<glyph glyph-name="abreve" unicode="&#x103;" horiz-adv-x="601" d="M140 745 C143 684 216 639 314 639 C411 639 484 683 487 744 L477 745 C475 704 406 674 314 674 C222 674 153 704 151 746 L140 745 L140 745 Z M611 78 L604 81 C599 52 575 31 546 31 C513 31 489 52 489 81 L489 358 C489 459 416 510 314 510 C174 510 73 412 73 360 C73 340 84 325 98 325 C117 325 131 340 131 350 C131 362 111 382 111 392 C111 432 195 506 310 506 C385 506 439 463 439 377 L439 266 C137 213 53 183 53 81 C53 29 114 -9 199 -9 C263 -9 348 21 439 90 C439 35 470 -4 525 -4 C566 -4 603 31 611 79 L611 78 L611 78 Z M439 264 L439 92 C370 40 292 18 226 18 C155 18 104 47 104 87 C104 189 177 217 439 263 L439 264 L439 264 Z " />
<glyph glyph-name="Cacute" unicode="&#x106;" horiz-adv-x="818" d="M449 813 L588 936 C629 973 658 1001 658 1005 C658 1018 647 1029 634 1029 C630 1029 602 1000 565 959 L442 820 L449 813 L449 813 Z M772 49 L772 168 L750 168 L740 148 C719 104 673 58 629 35 C575 9 509 -6 429 -6 C253 -6 125 154 125 375 C125 596 258 756 442 756 C519 756 578 743 626 721 C669 701 718 651 740 602 L750 582 L772 582 L772 698 L755 698 L750 690 C745 680 715 688 682 707 C627 740 553 760 441 760 C220 760 60 598 60 375 C60 152 215 -10 428 -10 C541 -10 624 13 686 50 C717 66 742 70 748 58 L753 49 L772 49 L772 49 Z M763 622 L763 622 L763 622 L763 622 Z " />
<glyph glyph-name="Ccircumflex" unicode="&#x108;" horiz-adv-x="818" d="M772 49 L772 168 L750 168 L740 148 C719 104 673 58 629 35 C575 9 509 -6 429 -6 C253 -6 125 154 125 375 C125 596 258 756 442 756 C519 756 578 743 626 721 C669 701 718 651 740 602 L750 582 L772 582 L772 698 L755 698 L750 690 C745 680 715 688 682 707 C627 740 553 760 441 760 C220 760 60 598 60 375 C60 152 215 -10 428 -10 C541 -10 624 13 686 50 C717 66 742 70 748 58 L753 49 L772 49 L772 49 Z M458 1015 C455 1020 446 1033 440 1033 C434 1033 425 1020 422 1015 L291 813 L298 808 L440 976 L582 808 L589 813 L458 1015 L458 1015 Z M763 622 L763 622 L763 622 L763 622 Z " />
<glyph glyph-name="Cdot" unicode="&#x10a;" horiz-adv-x="818" d="M474 897 C474 940 410 940 410 897 C410 855 474 855 474 897 L474 897 Z M772 49 L772 168 L750 168 L740 148 C719 104 673 58 629 35 C575 9 509 -6 429 -6 C253 -6 125 154 125 375 C125 596 258 756 442 756 C519 756 578 743 626 721 C669 701 718 651 740 602 L750 582 L772 582 L772 698 L755 698 L750 690 C745 680 715 688 682 707 C627 740 553 760 441 760 C220 760 60 598 60 375 C60 152 215 -10 428 -10 C541 -10 624 13 686 50 C717 66 742 70 748 58 L753 49 L772 49 L772 49 Z M763 622 L763 622 L763 622 L763 622 Z " />
<glyph glyph-name="cdot" unicode="&#x10b;" horiz-adv-x="577" d="M352 647 C352 690 288 690 288 647 C288 605 352 605 352 647 L352 647 Z M547 128 L545 129 C512 55 411 2 305 2 C183 2 95 112 95 264 C95 405 189 507 319 507 C401 507 475 464 497 405 C502 391 513 380 522 380 C542 380 552 391 547 405 C525 466 429 510 320 510 C161 510 45 396 45 239 C45 95 151 -10 298 -10 C407 -10 511 48 547 128 L547 128 Z " />
<glyph glyph-name="Ccaron" unicode="&#x10c;" horiz-adv-x="818" d="M584 1042 L442 874 L300 1042 L293 1037 L424 835 C427 830 436 817 442 817 C448 817 457 830 460 835 L591 1037 L584 1042 L584 1042 Z M772 49 L772 168 L750 168 L740 148 C719 104 673 58 629 35 C575 9 509 -6 429 -6 C253 -6 125 154 125 375 C125 596 258 756 442 756 C519 756 578 743 626 721 C669 701 718 651 740 602 L750 582 L772 582 L772 698 L755 698 L750 690 C745 680 715 688 682 707 C627 740 553 760 441 760 C220 760 60 598 60 375 C60 152 215 -10 428 -10 C541 -10 624 13 686 50 C717 66 742 70 748 58 L753 49 L772 49 L772 49 Z M763 622 L763 622 L763 622 L763 622 Z " />
<glyph glyph-name="ccaron" unicode="&#x10d;" horiz-adv-x="577" d="M462 792 L320 624 L178 792 L171 787 L302 585 C305 580 314 567 320 567 C326 567 335 580 338 585 L469 787 L462 792 L462 792 Z M547 128 L545 129 C512 55 411 2 305 2 C183 2 95 112 95 264 C95 405 189 507 319 507 C401 507 475 464 497 405 C502 391 513 380 522 380 C542 380 552 391 547 405 C525 466 429 510 320 510 C161 510 45 396 45 239 C45 95 151 -10 298 -10 C407 -10 511 48 547 128 L547 128 Z " />
<glyph glyph-name="Dcaron" unicode="&#x10e;" horiz-adv-x="876" d="M576 1042 L433 873 L291 1042 L284 1037 L416 835 C419 830 429 817 434 817 C439 817 448 830 451 835 L583 1037 L576 1042 L576 1042 Z M279 3 C182 3 168 35 168 80 L168 747 L330 747 C602 747 757 591 757 375 C757 138 556 3 279 3 L279 3 Z M71 730 C95 730 110 713 110 680 L110 70 C110 37 95 20 71 20 L71 0 L284 0 C595 0 821 136 821 375 C821 593 648 750 342 750 L71 750 L71 730 L71 730 Z " />
<glyph glyph-name="dcaron" unicode="&#x10f;" horiz-adv-x="635" d="M675 757 C665 757 652 693 646 650 L629 539 L637 538 L672 645 C687 690 698 734 698 750 C698 755 688 757 675 757 L675 757 Z M620 37 C597 29 581 40 581 75 L581 750 L556 750 L531 743 L531 741 C524 739 517 737 511 736 L511 724 C523 716 530 692 530 664 L530 406 C499 463 429 510 356 510 C158 510 45 402 45 254 C45 104 162 -5 323 -5 C409 -5 495 28 531 75 L531 0 L556 0 C575 5 601 12 620 17 L620 37 L620 37 Z M531 375 L531 79 C501 42 424 16 344 16 C200 16 96 121 96 267 C96 399 192 495 362 495 C439 495 512 438 531 375 L531 375 Z " />
<glyph glyph-name="Emacron" unicode="&#x112;" horiz-adv-x="642" d="M123 901 L557 901 L557 936 L123 936 L123 901 L123 901 Z M51 730 L60 730 C89 730 110 701 110 660 L110 90 C110 49 89 20 60 20 L51 20 L51 0 L593 0 L593 1 L594 1 C598 24 604 59 608 82 L591 82 L585 70 C565 31 506 3 445 3 L248 3 C178 3 168 35 168 80 L168 385 L383 385 C429 385 473 353 487 309 L491 296 L508 296 L508 478 L491 478 L487 465 C473 421 429 389 383 389 L168 389 L168 747 L443 747 C489 747 537 715 556 671 L562 658 L579 658 C576 684 571 723 568 749 L568 750 L51 750 L51 730 L51 730 Z " />
<glyph glyph-name="emacron" unicode="&#x113;" horiz-adv-x="653" d="M146 651 L580 651 L580 686 L146 686 L146 651 L146 651 Z M108 340 L623 340 C602 458 496 510 363 510 C179 510 45 426 45 235 C45 93 166 -10 334 -10 C462 -10 577 51 608 135 L607 135 C579 58 467 3 339 3 C199 3 98 109 98 255 C98 286 102 314 109 339 L108 340 L108 340 Z M568 343 L110 342 C142 455 239 506 363 506 C464 506 547 456 568 343 L568 343 Z " />
<glyph glyph-name="Ebreve" unicode="&#x114;" horiz-adv-x="642" d="M166 995 C169 934 242 889 340 889 C437 889 510 933 513 994 L503 995 C501 954 432 924 340 924 C248 924 179 954 177 996 L166 995 L166 995 Z M51 730 L60 730 C89 730 110 701 110 660 L110 90 C110 49 89 20 60 20 L51 20 L51 0 L593 0 L593 1 L594 1 C598 24 604 59 608 82 L591 82 L585 70 C565 31 506 3 445 3 L248 3 C178 3 168 35 168 80 L168 385 L383 385 C429 385 473 353 487 309 L491 296 L508 296 L508 478 L491 478 L487 465 C473 421 429 389 383 389 L168 389 L168 747 L443 747 C489 747 537 715 556 671 L562 658 L579 658 C576 684 571 723 568 749 L568 750 L51 750 L51 730 L51 730 Z " />
<glyph glyph-name="ebreve" unicode="&#x115;" horiz-adv-x="653" d="M189 745 C192 684 265 639 363 639 C460 639 533 683 536 744 L526 745 C524 704 455 674 363 674 C271 674 202 704 200 746 L189 745 L189 745 Z M108 340 L623 340 C602 458 496 510 363 510 C179 510 45 426 45 235 C45 93 166 -10 334 -10 C462 -10 577 51 608 135 L607 135 C579 58 467 3 339 3 C199 3 98 109 98 255 C98 286 102 314 109 339 L108 340 L108 340 Z M568 343 L110 342 C142 455 239 506 363 506 C464 506 547 456 568 343 L568 343 Z " />
<glyph glyph-name="Edot" unicode="&#x116;" horiz-adv-x="642" d="M372 897 C372 940 308 940 308 897 C308 855 372 855 372 897 L372 897 Z M51 730 L60 730 C89 730 110 701 110 660 L110 90 C110 49 89 20 60 20 L51 20 L51 0 L593 0 L593 1 L594 1 C598 24 604 59 608 82 L591 82 L585 70 C565 31 506 3 445 3 L248 3 C178 3 168 35 168 80 L168 385 L383 385 C429 385 473 353 487 309 L491 296 L508 296 L508 478 L491 478 L487 465 C473 421 429 389 383 389 L168 389 L168 747 L443 747 C489 747 537 715 556 671 L562 658 L579 658 C576 684 571 723 568 749 L568 750 L51 750 L51 730 L51 730 Z " />
<glyph glyph-name="edot" unicode="&#x117;" horiz-adv-x="653" d="M395 647 C395 690 331 690 331 647 C331 605 395 605 395 647 L395 647 Z M108 340 L623 340 C602 458 496 510 363 510 C179 510 45 426 45 235 C45 93 166 -10 334 -10 C462 -10 577 51 608 135 L607 135 C579 58 467 3 339 3 C199 3 98 109 98 255 C98 286 102 314 109 339 L108 340 L108 340 Z M568 343 L110 342 C142 455 239 506 363 506 C464 506 547 456 568 343 L568 343 Z " />
<glyph glyph-name="Ecaron" unicode="&#x11a;" horiz-adv-x="642" d="M482 1042 L340 874 L198 1042 L191 1037 L322 835 C325 830 334 817 340 817 C346 817 355 830 358 835 L489 1037 L482 1042 L482 1042 Z M51 730 L60 730 C89 730 110 701 110 660 L110 90 C110 49 89 20 60 20 L51 20 L51 0 L593 0 L593 1 L594 1 C598 24 604 59 608 82 L591 82 L585 70 C565 31 506 3 445 3 L248 3 C178 3 168 35 168 80 L168 385 L383 385 C429 385 473 353 487 309 L491 296 L508 296 L508 478 L491 478 L487 465 C473 421 429 389 383 389 L168 389 L168 747 L443 747 C489 747 537 715 556 671 L562 658 L579 658 C576 684 571 723 568 749 L568 750 L51 750 L51 730 L51 730 Z " />
<glyph glyph-name="ecaron" unicode="&#x11b;" horiz-adv-x="653" d="M505 792 L363 624 L221 792 L214 787 L345 585 C348 580 357 567 363 567 C369 567 378 580 381 585 L512 787 L505 792 L505 792 Z M108 340 L623 340 C602 458 496 510 363 510 C179 510 45 426 45 235 C45 93 166 -10 334 -10 C462 -10 577 51 608 135 L607 135 C579 58 467 3 339 3 C199 3 98 109 98 255 C98 286 102 314 109 339 L108 340 L108 340 Z M568 343 L110 342 C142 455 239 506 363 506 C464 506 547 456 568 343 L568 343 Z " />
<glyph glyph-name="Gcircumflex" unicode="&#x11c;" horiz-adv-x="849" d="M755 698 L750 690 C745 680 715 688 682 707 C627 740 553 760 441 760 C220 760 60 598 60 375 C60 152 214 -10 426 -10 C612 -10 737 20 827 62 L826 65 C805 55 781 46 753 38 L753 216 C753 265 771 301 795 301 L802 301 L802 326 L645 326 L645 301 L652 301 C676 301 694 265 694 216 C694 170 694 119 694 81 C694 83 694 85 694 87 L694 25 L717 29 C646 13 555 3 436 3 C471 3 504 5 534 9 C497 6 461 4 437 4 C257 4 126 161 126 377 C126 598 259 758 443 758 C520 758 579 745 627 723 C670 703 719 653 741 604 L751 584 L773 584 L773 700 L755 698 L755 698 Z M461 1017 C458 1022 449 1035 443 1035 C437 1035 428 1022 425 1017 L294 815 L301 810 L443 978 L585 810 L592 815 L461 1017 L461 1017 Z M766 624 L766 624 L766 624 L766 624 Z M535 9 C627 20 689 47 696 81 C696 49 696 27 696 26 C696 26 613 16 536 9 L535 9 L535 9 Z " />
<glyph glyph-name="Gbreve" unicode="&#x11e;" horiz-adv-x="849" d="M268 995 C271 934 344 889 442 889 C539 889 612 933 615 994 L605 995 C603 954 534 924 442 924 C350 924 281 954 279 996 L268 995 L268 995 Z M755 698 L750 690 C745 680 715 688 682 707 C627 740 553 760 441 760 C220 760 60 598 60 375 C60 152 214 -10 426 -10 C612 -10 737 20 827 62 L826 65 C805 55 781 46 753 38 L753 216 C753 265 771 301 795 301 L802 301 L802 326 L645 326 L645 301 L652 301 C676 301 694 265 694 216 C694 170 694 119 694 81 C694 83 694 85 694 87 L694 25 L717 29 C646 13 555 3 436 3 C471 3 504 5 534 9 C497 6 461 4 437 4 C257 4 126 161 126 377 C126 598 259 758 443 758 C520 758 579 745 627 723 C670 703 719 653 741 604 L751 584 L773 584 L773 700 L755 698 L755 698 Z M766 624 L766 624 L766 624 L766 624 Z M535 9 C627 20 689 47 696 81 C696 49 696 27 696 26 C696 26 613 16 536 9 L535 9 L535 9 Z " />
<glyph glyph-name="gbreve" unicode="&#x11f;" horiz-adv-x="610" d="M131 745 C134 684 207 639 305 639 C402 639 475 683 478 744 L468 745 C466 704 397 674 305 674 C213 674 144 704 142 746 L131 745 L131 745 Z M629 459 C629 476 616 489 597 489 C557 489 520 463 503 425 C468 477 396 510 306 510 C178 510 85 443 85 350 C85 266 160 203 268 191 C146 185 62 152 62 107 C62 60 114 24 189 18 C110 -4 55 -49 55 -93 C55 -172 165 -230 316 -230 C467 -230 577 -167 577 -79 C577 6 509 67 354 67 L215 67 C143 67 91 90 91 122 C91 160 182 188 307 188 C435 188 527 256 527 350 C527 377 519 402 505 423 C518 444 542 458 568 458 C580 458 597 438 609 438 C621 438 630 447 630 460 L629 459 L629 459 Z M306 192 C207 192 135 259 135 351 C135 442 207 508 306 508 C405 508 476 442 476 351 C476 259 405 192 306 192 L306 192 Z M193 19 C199 19 205 19 211 19 L347 19 C477 19 534 -26 534 -88 C534 -167 442 -225 315 -225 C187 -225 94 -164 94 -79 C94 -38 134 1 192 19 L193 19 L193 19 Z " />
<glyph glyph-name="Gdot" unicode="&#x120;" horiz-adv-x="849" d="M474 897 C474 940 410 940 410 897 C410 855 474 855 474 897 L474 897 Z M755 698 L750 690 C745 680 715 688 682 707 C627 740 553 760 441 760 C220 760 60 598 60 375 C60 152 214 -10 426 -10 C612 -10 737 20 827 62 L826 65 C805 55 781 46 753 38 L753 216 C753 265 771 301 795 301 L802 301 L802 326 L645 326 L645 301 L652 301 C676 301 694 265 694 216 C694 170 694 119 694 81 C694 83 694 85 694 87 L694 25 L717 29 C646 13 555 3 436 3 C471 3 504 5 534 9 C497 6 461 4 437 4 C257 4 126 161 126 377 C126 598 259 758 443 758 C520 758 579 745 627 723 C670 703 719 653 741 604 L751 584 L773 584 L773 700 L755 698 L755 698 Z M766 624 L766 624 L766 624 L766 624 Z M535 9 C627 20 689 47 696 81 C696 49 696 27 696 26 C696 26 613 16 536 9 L535 9 L535 9 Z " />
<glyph glyph-name="gdot" unicode="&#x121;" horiz-adv-x="610" d="M337 647 C337 690 273 690 273 647 C273 605 337 605 337 647 L337 647 Z M629 459 C629 476 616 489 597 489 C557 489 520 463 503 425 C468 477 396 510 306 510 C178 510 85 443 85 350 C85 266 160 203 268 191 C146 185 62 152 62 107 C62 60 114 24 189 18 C110 -4 55 -49 55 -93 C55 -172 165 -230 316 -230 C467 -230 577 -167 577 -79 C577 6 509 67 354 67 L215 67 C143 67 91 90 91 122 C91 160 182 188 307 188 C435 188 527 256 527 350 C527 377 519 402 505 423 C518 444 542 458 568 458 C580 458 597 438 609 438 C621 438 630 447 630 460 L629 459 L629 459 Z M306 192 C207 192 135 259 135 351 C135 442 207 508 306 508 C405 508 476 442 476 351 C476 259 405 192 306 192 L306 192 Z M193 19 C199 19 205 19 211 19 L347 19 C477 19 534 -26 534 -88 C534 -167 442 -225 315 -225 C187 -225 94 -164 94 -79 C94 -38 134 1 192 19 L193 19 L193 19 Z " />
<glyph glyph-name="Hcircumflex" unicode="&#x124;" horiz-adv-x="833" d="M457 1015 C454 1020 445 1033 440 1033 C435 1033 425 1020 422 1015 L290 813 L297 808 L439 977 L582 808 L589 813 L457 1015 L457 1015 Z M773 20 C749 20 734 37 734 70 L734 680 C734 713 749 730 773 730 L773 750 L636 750 L636 730 C660 730 675 713 675 680 L675 387 L204 387 L204 680 C204 713 219 730 243 730 L243 750 L107 750 L107 730 C131 730 146 713 146 680 L146 70 C146 37 131 20 107 20 L107 0 L243 0 L243 20 C219 20 204 37 204 70 L204 383 L675 383 L675 70 C675 37 660 20 636 20 L636 0 L773 0 L773 20 L773 20 Z " />
<glyph glyph-name="Itilde" unicode="&#x128;" horiz-adv-x="273" d="M-62 870 C-62 908 -33 936 7 936 C82 936 192 871 267 871 C317 871 353 911 353 966 L350 966 C350 931 320 906 279 906 C203 906 94 971 18 971 C-30 971 -65 929 -65 870 L-62 870 L-62 870 Z M213 20 C189 20 174 37 174 70 L174 680 C174 713 189 730 213 730 L213 750 L76 750 L76 730 C100 730 115 713 115 680 L115 70 C115 37 100 20 76 20 L76 0 L213 0 L213 20 L213 20 Z " />
<glyph glyph-name="itilde" unicode="&#x129;" horiz-adv-x="202" d="M-93 621 C-93 659 -64 687 -24 687 C51 687 161 622 236 622 C286 622 322 662 322 717 L319 717 C319 682 289 657 248 657 C172 657 63 722 -13 722 C-61 722 -96 680 -96 621 L-93 621 L-93 621 Z M69 468 C79 471 88 472 88 460 L88 36 C88 25 80 21 69 21 L69 1 L157 1 L157 21 C146 21 138 25 138 36 L138 501 L113 501 C107 499 97 494 89 494 C89 493 71 489 70 489 L69 468 L69 468 Z " />
<glyph glyph-name="Imacron" unicode="&#x12a;" horiz-adv-x="273" d="M-73 901 L361 901 L361 936 L-73 936 L-73 901 L-73 901 Z M213 20 C189 20 174 37 174 70 L174 680 C174 713 189 730 213 730 L213 750 L76 750 L76 730 C100 730 115 713 115 680 L115 70 C115 37 100 20 76 20 L76 0 L213 0 L213 20 L213 20 Z " />
<glyph glyph-name="imacron" unicode="&#x12b;" horiz-adv-x="202" d="M-104 652 L330 652 L330 687 L-104 687 L-104 652 L-104 652 Z M69 468 C79 471 88 472 88 460 L88 36 C88 25 80 21 69 21 L69 1 L157 1 L157 21 C146 21 138 25 138 36 L138 501 L113 501 C107 499 97 494 89 494 C89 493 71 489 70 489 L69 468 L69 468 Z " />
<glyph glyph-name="Ibreve" unicode="&#x12c;" horiz-adv-x="273" d="M-30 995 C-27 934 46 889 144 889 C241 889 314 933 317 994 L307 995 C305 954 236 924 144 924 C52 924 -17 954 -19 996 L-30 995 L-30 995 Z M213 20 C189 20 174 37 174 70 L174 680 C174 713 189 730 213 730 L213 750 L76 750 L76 730 C100 730 115 713 115 680 L115 70 C115 37 100 20 76 20 L76 0 L213 0 L213 20 L213 20 Z " />
<glyph glyph-name="ibreve" unicode="&#x12d;" horiz-adv-x="202" d="M-61 746 C-58 685 15 640 113 640 C210 640 283 684 286 745 L276 746 C274 705 205 675 113 675 C21 675 -48 705 -50 747 L-61 746 L-61 746 Z M69 468 C79 471 88 472 88 460 L88 36 C88 25 80 21 69 21 L69 1 L157 1 L157 21 C146 21 138 25 138 36 L138 501 L113 501 C107 499 97 494 89 494 C89 493 71 489 70 489 L69 468 L69 468 Z " />
<glyph glyph-name="Idot" unicode="&#x130;" horiz-adv-x="273" d="M176 897 C176 940 112 940 112 897 C112 855 176 855 176 897 L176 897 Z M213 20 C189 20 174 37 174 70 L174 680 C174 713 189 730 213 730 L213 750 L76 750 L76 730 C100 730 115 713 115 680 L115 70 C115 37 100 20 76 20 L76 0 L213 0 L213 20 L213 20 Z " />
<glyph glyph-name="dotlessi" unicode="&#x131;" horiz-adv-x="202" d="M69 468 C79 471 88 472 88 460 L88 36 C88 25 80 21 69 21 L69 1 L157 1 L157 21 C146 21 138 25 138 36 L138 501 L113 501 C107 499 97 494 89 494 C89 493 71 489 70 489 L69 468 L69 468 Z " />
<glyph glyph-name="Jcircumflex" unicode="&#x134;" horiz-adv-x="273" d="M162 1015 C159 1020 150 1033 144 1033 C138 1033 129 1020 126 1015 L-5 813 L2 808 L144 976 L286 808 L293 813 L162 1015 L162 1015 Z M213 750 L76 750 L76 730 C100 730 115 713 115 680 L115 -34 C115 -181 31 -215 -26 -215 C-54 -215 -42 -168 -70 -168 C-86 -168 -97 -179 -97 -194 C-97 -209 -69 -220 -30 -220 C53 -220 174 -164 174 78 L174 680 C174 713 189 730 213 730 L213 750 L213 750 Z " />
<glyph glyph-name="Lacute" unicode="&#x139;" horiz-adv-x="650" d="M151 813 L290 936 C331 973 360 1001 360 1005 C360 1018 349 1029 336 1029 C332 1029 304 1000 267 959 L144 820 L151 813 L151 813 Z M213 750 L76 750 L76 730 C100 730 115 713 115 680 L115 70 C115 37 100 20 76 20 L76 0 L621 0 L621 5 L635 89 L618 89 L612 77 C592 38 533 10 472 10 L254 10 C184 10 174 39 174 80 L174 680 C174 713 189 730 213 730 L213 750 L213 750 Z " />
<glyph glyph-name="Lcaron" unicode="&#x13d;" horiz-adv-x="650" d="M322 809 C312 809 299 745 293 702 L276 591 L285 590 L319 697 C334 741 344 785 344 802 C344 807 335 809 322 809 L322 809 Z M213 750 L76 750 L76 730 C100 730 115 713 115 680 L115 70 C115 37 100 20 76 20 L76 0 L621 0 L621 5 L635 89 L618 89 L612 77 C592 38 533 10 472 10 L254 10 C184 10 174 39 174 80 L174 680 C174 713 189 730 213 730 L213 750 L213 750 Z " />
<glyph glyph-name="lcaron" unicode="&#x13e;" horiz-adv-x="146" d="M191 759 C181 759 168 695 162 652 L145 541 L153 540 L188 647 C203 692 214 736 214 752 C214 757 204 759 191 759 L191 759 Z M28 726 C40 718 47 694 47 666 L47 35 C47 24 39 20 28 20 L28 0 L116 0 L116 20 C105 20 97 24 97 35 L97 750 L72 750 C66 748 56 743 48 743 C48 742 30 738 29 738 L28 726 L28 726 Z " />
<glyph glyph-name="Nacute" unicode="&#x143;" horiz-adv-x="786" d="M298 813 L437 936 C478 973 507 1001 507 1005 C507 1018 496 1029 483 1029 C479 1029 451 1000 414 959 L291 820 L298 813 L298 813 Z M28 730 C51 730 72 718 96 694 L95 70 L95 70 C95 37 80 20 56 20 L56 0 L151 0 L151 20 C127 20 112 37 112 70 L112 70 L110 678 C297 452 483 225 671 0 L683 0 L687 680 L687 680 C687 713 702 730 726 730 L726 750 L631 750 L631 730 C655 730 670 713 670 680 L671 93 C489 312 307 531 125 750 L29 750 L28 730 L28 730 Z " />
<glyph glyph-name="Ncaron" unicode="&#x147;" horiz-adv-x="786" d="M533 1042 L391 874 L249 1042 L242 1037 L373 835 C376 830 385 817 391 817 C397 817 406 830 409 835 L540 1037 L533 1042 L533 1042 Z M28 730 C51 730 72 718 96 694 L95 70 L95 70 C95 37 80 20 56 20 L56 0 L151 0 L151 20 C127 20 112 37 112 70 L112 70 L110 678 C297 452 483 225 671 0 L683 0 L687 680 L687 680 C687 713 702 730 726 730 L726 750 L631 750 L631 730 C655 730 670 713 670 680 L671 93 C489 312 307 531 125 750 L29 750 L28 730 L28 730 Z " />
<glyph glyph-name="ncaron" unicode="&#x148;" horiz-adv-x="541" d="M412 792 L269 623 L127 792 L120 787 L252 585 C255 580 265 567 270 567 C275 567 284 580 287 585 L419 787 L412 792 L412 792 Z M28 476 C40 468 47 444 47 416 L47 35 C47 24 39 20 28 20 L28 0 L116 0 L116 20 C105 20 97 24 97 35 L97 359 C153 432 237 485 298 485 C390 485 442 412 442 311 L442 35 C442 24 434 20 423 20 L423 0 L511 0 L511 20 C500 20 492 24 492 35 L492 311 C492 426 428 510 314 510 C251 510 160 450 97 367 L97 500 L72 500 C66 498 56 493 48 493 C48 492 30 488 29 488 L28 476 L28 476 Z " />
<glyph glyph-name="Omacron" unicode="&#x14c;" horiz-adv-x="918" d="M240 901 L674 901 L674 936 L240 936 L240 901 L240 901 Z M125 375 C125 596 264 756 456 756 C655 756 799 596 799 375 C799 154 652 -6 448 -6 C261 -6 125 154 125 375 L125 375 Z M61 375 C61 152 223 -10 447 -10 C688 -10 863 152 863 375 C863 598 692 760 457 760 C227 760 61 598 61 375 L61 375 Z " />
<glyph glyph-name="omacron" unicode="&#x14d;" horiz-adv-x="694" d="M130 651 L564 651 L564 686 L130 686 L130 651 L130 651 Z M100 250 C100 398 204 506 347 506 C490 506 593 398 593 250 C593 102 490 -6 347 -6 C204 -6 100 102 100 250 L100 250 Z M45 250 C45 99 172 -10 347 -10 C522 -10 649 99 649 250 C649 401 522 510 347 510 C172 510 45 401 45 250 L45 250 Z " />
<glyph glyph-name="Obreve" unicode="&#x14e;" horiz-adv-x="918" d="M283 995 C286 934 359 889 457 889 C554 889 627 933 630 994 L620 995 C618 954 549 924 457 924 C365 924 296 954 294 996 L283 995 L283 995 Z M125 375 C125 596 264 756 456 756 C655 756 799 596 799 375 C799 154 652 -6 448 -6 C261 -6 125 154 125 375 L125 375 Z M61 375 C61 152 223 -10 447 -10 C688 -10 863 152 863 375 C863 598 692 760 457 760 C227 760 61 598 61 375 L61 375 Z " />
<glyph glyph-name="obreve" unicode="&#x14f;" horiz-adv-x="694" d="M173 745 C176 684 249 639 347 639 C444 639 517 683 520 744 L510 745 C508 704 439 674 347 674 C255 674 186 704 184 746 L173 745 L173 745 Z M100 250 C100 398 204 506 347 506 C490 506 593 398 593 250 C593 102 490 -6 347 -6 C204 -6 100 102 100 250 L100 250 Z M45 250 C45 99 172 -10 347 -10 C522 -10 649 99 649 250 C649 401 522 510 347 510 C172 510 45 401 45 250 L45 250 Z " />
<glyph glyph-name="Racute" unicode="&#x154;" horiz-adv-x="736" d="M345 813 L484 936 C525 973 554 1001 554 1005 C554 1018 542 1029 529 1029 C525 1029 497 1000 461 959 L339 820 L345 813 L345 813 Z M71 730 C95 730 110 713 110 680 L110 70 C110 37 95 20 71 20 L71 0 L207 0 L207 20 C183 20 168 37 168 70 L168 365 L392 365 C406 333 464 220 540 80 C580 6 594 0 726 0 L726 12 C652 12 643 17 609 80 C532 221 472 331 451 369 C558 383 631 440 631 540 C631 662 531 750 394 750 L70 750 L71 730 L71 730 Z M167 380 L167 738 L376 738 C486 738 566 660 566 552 C566 437 494 380 394 380 L167 380 L167 380 Z " />
<glyph glyph-name="Rcaron" unicode="&#x158;" horiz-adv-x="736" d="M481 1042 L338 873 L196 1042 L189 1037 L321 835 C324 830 334 817 339 817 C344 817 353 830 356 835 L488 1037 L481 1042 L481 1042 Z M71 730 C95 730 110 713 110 680 L110 70 C110 37 95 20 71 20 L71 0 L207 0 L207 20 C183 20 168 37 168 70 L168 365 L392 365 C406 333 464 220 540 80 C580 6 594 0 726 0 L726 12 C652 12 643 17 609 80 C532 221 472 331 451 369 C558 383 631 440 631 540 C631 662 531 750 394 750 L70 750 L71 730 L71 730 Z M167 380 L167 738 L376 738 C486 738 566 660 566 552 C566 437 494 380 394 380 L167 380 L167 380 Z " />
<glyph glyph-name="rcaron" unicode="&#x159;" horiz-adv-x="425" d="M369 792 L227 624 L85 792 L78 787 L209 585 C212 580 221 567 227 567 C233 567 242 580 245 585 L376 787 L369 792 L369 792 Z M29 476 C41 468 48 444 48 416 L48 35 C48 24 40 20 29 20 L29 0 L117 0 L117 20 C106 20 98 24 98 35 L98 375 C143 441 220 488 286 488 C327 488 357 473 357 453 C357 416 416 415 416 453 C416 487 371 511 309 511 C236 511 149 457 98 382 L98 500 L73 500 C67 498 57 493 49 493 C49 492 31 488 30 488 L29 476 L29 476 Z " />
<glyph glyph-name="Sacute" unicode="&#x15a;" horiz-adv-x="636" d="M326 813 L465 936 C506 973 535 1001 535 1005 C535 1018 524 1029 511 1029 C507 1029 479 1000 442 959 L319 820 L326 813 L326 813 Z M396 749 L395 746 C360 755 322 760 283 760 C161 760 73 683 73 576 C73 513 169 423 337 344 C472 281 549 211 549 165 C549 66 468 -5 355 -5 C304 -5 253 7 208 28 C159 51 107 109 85 166 L76 190 L53 190 L53 47 L71 47 L75 59 C81 74 109 70 143 50 C201 12 277 -11 355 -11 C495 -11 596 70 596 182 C596 251 515 338 372 405 C210 481 118 554 118 597 C118 689 187 755 283 755 C324 755 364 748 400 736 C449 718 499 671 520 621 L530 599 L552 599 L552 706 L535 706 L530 701 C525 695 500 702 471 717 L471 716 C448 728 421 740 395 748 L396 749 L396 749 Z " />
<glyph glyph-name="Scircumflex" unicode="&#x15c;" horiz-adv-x="636" d="M396 749 L395 746 C360 755 322 760 283 760 C161 760 73 683 73 576 C73 513 169 423 337 344 C472 281 549 211 549 165 C549 66 468 -5 355 -5 C304 -5 253 7 208 28 C159 51 107 109 85 166 L76 190 L53 190 L53 47 L71 47 L75 59 C81 74 109 70 143 50 C201 12 277 -11 355 -11 C495 -11 596 70 596 182 C596 251 515 338 372 405 C210 481 118 554 118 597 C118 689 187 755 283 755 C324 755 364 748 400 736 C449 718 499 671 520 621 L530 599 L552 599 L552 706 L535 706 L530 701 C525 695 500 702 471 717 L471 716 C448 728 421 740 395 748 L396 749 L396 749 Z M336 1014 C333 1019 324 1032 318 1032 C312 1032 303 1019 300 1014 L169 812 L176 807 L318 975 L460 807 L467 812 L336 1014 L336 1014 Z " />
<glyph glyph-name="Scaron" unicode="&#x160;" horiz-adv-x="636" d="M461 1042 L319 874 L177 1042 L170 1037 L301 835 C304 830 313 817 319 817 C325 817 334 830 337 835 L468 1037 L461 1042 L461 1042 Z M396 749 L395 746 C360 755 322 760 283 760 C161 760 73 683 73 576 C73 513 169 423 337 344 C472 281 549 211 549 165 C549 66 468 -5 355 -5 C304 -5 253 7 208 28 C159 51 107 109 85 166 L76 190 L53 190 L53 47 L71 47 L75 59 C81 74 109 70 143 50 C201 12 277 -11 355 -11 C495 -11 596 70 596 182 C596 251 515 338 372 405 C210 481 118 554 118 597 C118 689 187 755 283 755 C324 755 364 748 400 736 C449 718 499 671 520 621 L530 599 L552 599 L552 706 L535 706 L530 701 C525 695 500 702 471 717 L471 716 C448 728 421 740 395 748 L396 749 L396 749 Z " />
<glyph glyph-name="scaron" unicode="&#x161;" horiz-adv-x="511" d="M420 792 L278 624 L136 792 L129 787 L260 585 C263 580 272 567 278 567 C284 567 293 580 296 585 L427 787 L420 792 L420 792 Z M60 128 L60 46 L74 46 L77 49 C77 49 145 17 173 6 L173 7 C205 -4 241 -10 278 -10 C384 -10 461 45 461 121 C461 171 399 229 289 269 C167 313 98 367 98 406 C98 465 153 507 228 507 C265 507 301 500 332 489 C373 472 407 438 417 404 L421 392 L435 392 L435 464 L422 464 L418 463 C421 464 392 476 348 492 C348 492 321 502 318 503 L317 501 C290 508 260 512 229 512 C133 512 63 461 63 391 C63 343 137 281 268 233 C368 197 424 148 424 109 C424 43 363 -5 279 -5 C243 -5 208 2 177 15 C132 33 91 76 80 117 L76 130 L60 128 L60 128 Z " />
<glyph glyph-name="Tcaron" unicode="&#x164;" horiz-adv-x="864" d="M573 1042 L431 874 L289 1042 L282 1037 L413 835 C416 830 425 817 431 817 C437 817 446 830 449 835 L580 1037 L573 1042 L573 1042 Z M810 747 L810 748 L810 747 L810 747 Z M364 1 L501 1 L501 21 C477 21 462 38 462 71 L462 736 L680 736 C729 736 786 708 816 669 L825 657 L842 657 C833 680 820 712 810 736 L810 747 C810 748 810 749 810 750 L810 751 L56 751 L56 750 C55 748 54 745 53 743 L56 750 L56 739 C46 714 32 680 23 657 L40 657 L49 669 C78 708 135 736 184 736 L404 736 L404 71 C404 38 389 21 365 21 L364 1 L364 1 Z M811 748 L811 751 L810 751 L811 748 L811 748 Z " />
<glyph glyph-name="tcaron" unicode="&#x165;" horiz-adv-x="395" d="M355 500 L156 500 L156 620 L153 620 L41 500 L41 490 L106 490 L106 129 C106 32 165 -10 246 -10 C298 -10 356 23 385 68 L380 71 C359 38 309 14 261 14 C200 14 155 46 155 118 L156 474 L355 474 L355 500 L355 500 Z M449 759 C439 759 426 695 420 652 L403 541 L411 540 L446 647 C461 692 472 736 472 752 C472 757 462 759 449 759 L449 759 Z " />
<glyph glyph-name="Utilde" unicode="&#x168;" horiz-adv-x="718" d="M156 870 C156 908 185 936 225 936 C300 936 410 871 485 871 C535 871 571 911 571 966 L568 966 C568 931 538 906 497 906 C421 906 312 971 236 971 C188 971 153 929 153 870 L156 870 L156 870 Z M688 39 C666 32 649 44 649 78 L649 750 L552 750 L552 730 C576 730 591 713 591 680 L591 194 C546 98 434 28 323 28 C213 28 133 116 133 238 L133 750 L36 750 L36 730 C60 730 75 713 75 680 L75 238 C75 94 169 -10 299 -10 C420 -10 543 64 591 167 L591 0 L620 0 L649 8 C649 11 686 19 688 19 L688 39 L688 39 Z " />
<glyph glyph-name="utilde" unicode="&#x169;" horiz-adv-x="570" d="M78 619 C78 657 107 685 147 685 C222 685 332 620 407 620 C457 620 493 660 493 715 L491 715 C491 680 461 655 419 655 C344 655 234 720 159 720 C111 720 76 678 76 619 L78 619 L78 619 Z M457 479 C468 479 476 475 476 464 L476 130 C444 69 352 25 249 25 C159 25 93 87 93 173 L93 500 L24 500 L24 480 C35 480 43 476 43 465 L43 173 C43 67 120 -10 226 -10 C336 -10 438 46 475 125 L475 0 L500 0 C516 4 538 10 554 14 L554 34 C535 29 525 43 525 76 L525 500 L475 500 L475 499 L456 499 L457 479 L457 479 Z " />
<glyph glyph-name="Umacron" unicode="&#x16a;" horiz-adv-x="718" d="M145 901 L579 901 L579 936 L145 936 L145 901 L145 901 Z M688 39 C666 32 649 44 649 78 L649 750 L552 750 L552 730 C576 730 591 713 591 680 L591 194 C546 98 434 28 323 28 C213 28 133 116 133 238 L133 750 L36 750 L36 730 C60 730 75 713 75 680 L75 238 C75 94 169 -10 299 -10 C420 -10 543 64 591 167 L591 0 L620 0 L649 8 C649 11 686 19 688 19 L688 39 L688 39 Z " />
<glyph glyph-name="umacron" unicode="&#x16b;" horiz-adv-x="570" d="M67 650 L502 650 L502 685 L67 685 L67 650 L67 650 Z M457 479 C468 479 476 475 476 464 L476 130 C444 69 352 25 249 25 C159 25 93 87 93 173 L93 500 L24 500 L24 480 C35 480 43 476 43 465 L43 173 C43 67 120 -10 226 -10 C336 -10 438 46 475 125 L475 0 L500 0 C516 4 538 10 554 14 L554 34 C535 29 525 43 525 76 L525 500 L475 500 L475 499 L456 499 L457 479 L457 479 Z " />
<glyph glyph-name="Ubreve" unicode="&#x16c;" horiz-adv-x="718" d="M188 995 C191 934 264 889 362 889 C459 889 532 933 535 994 L525 995 C523 954 454 924 362 924 C270 924 201 954 199 996 L188 995 L188 995 Z M688 39 C666 32 649 44 649 78 L649 750 L552 750 L552 730 C576 730 591 713 591 680 L591 194 C546 98 434 28 323 28 C213 28 133 116 133 238 L133 750 L36 750 L36 730 C60 730 75 713 75 680 L75 238 C75 94 169 -10 299 -10 C420 -10 543 64 591 167 L591 0 L620 0 L649 8 C649 11 686 19 688 19 L688 39 L688 39 Z " />
<glyph glyph-name="ubreve" unicode="&#x16d;" horiz-adv-x="570" d="M111 744 C114 683 187 638 285 638 C382 638 455 682 458 743 L448 744 C446 703 377 673 285 673 C192 673 123 703 121 745 L111 744 L111 744 Z M457 479 C468 479 476 475 476 464 L476 130 C444 69 352 25 249 25 C159 25 93 87 93 173 L93 500 L24 500 L24 480 C35 480 43 476 43 465 L43 173 C43 67 120 -10 226 -10 C336 -10 438 46 475 125 L475 0 L500 0 C516 4 538 10 554 14 L554 34 C535 29 525 43 525 76 L525 500 L475 500 L475 499 L456 499 L457 479 L457 479 Z " />
<glyph glyph-name="Uring" unicode="&#x16e;" horiz-adv-x="718" d="M280 905 C280 953 314 988 362 988 C410 988 444 953 444 905 C444 862 405 822 362 822 C319 822 280 862 280 905 L280 905 Z M266 905 C266 855 312 810 362 810 C412 810 458 855 458 905 C458 960 418 1000 362 1000 C306 1000 266 960 266 905 L266 905 Z M688 39 C666 32 649 44 649 78 L649 750 L552 750 L552 730 C576 730 591 713 591 680 L591 194 C546 98 434 28 323 28 C213 28 133 116 133 238 L133 750 L36 750 L36 730 C60 730 75 713 75 680 L75 238 C75 94 169 -10 299 -10 C420 -10 543 64 591 167 L591 0 L620 0 L649 8 C649 11 686 19 688 19 L688 39 L688 39 Z " />
<glyph glyph-name="uring" unicode="&#x16f;" horiz-adv-x="570" d="M203 654 C203 702 237 737 285 737 C332 737 366 702 366 654 C366 611 327 571 285 571 C242 571 203 611 203 654 L203 654 Z M188 654 C188 604 234 559 285 559 C335 559 381 604 381 654 C381 709 341 749 285 749 C229 749 188 709 188 654 L188 654 Z M457 479 C468 479 476 475 476 464 L476 130 C444 69 352 25 249 25 C159 25 93 87 93 173 L93 500 L24 500 L24 480 C35 480 43 476 43 465 L43 173 C43 67 120 -10 226 -10 C336 -10 438 46 475 125 L475 0 L500 0 C516 4 538 10 554 14 L554 34 C535 29 525 43 525 76 L525 500 L475 500 L475 499 L456 499 L457 479 L457 479 Z " />
<glyph glyph-name="Wcircumflex" unicode="&#x174;" horiz-adv-x="1151" d="M557 645 L557 645 L611 500 L375 71 L140 655 C126 696 133 725 158 725 L166 725 L166 750 L17 750 L17 725 C37 725 54 701 73 658 C159 435 246 213 331 -10 L346 -10 L619 479 C680 316 741 153 802 -10 L817 -10 L1055 651 C1074 699 1100 726 1131 726 L1131 751 L969 751 L969 726 L982 726 C1027 726 1047 692 1031 646 L1031 646 L834 82 C764 270 692 459 622 646 C605 692 618 726 655 726 L666 726 L666 751 L492 751 L492 726 C515 726 537 696 555 646 L557 645 L557 645 Z M581 1016 C578 1021 569 1034 563 1034 C557 1034 548 1021 545 1016 L414 814 L421 809 L563 977 L705 809 L712 814 L581 1016 L581 1016 Z " />
<glyph glyph-name="Ycircumflex" unicode="&#x176;" horiz-adv-x="715" d="M160 750 L22 750 L22 730 C38 730 57 713 80 683 L334 329 L334 90 C334 49 313 20 284 20 L275 20 L275 0 L452 0 L452 20 L443 20 C414 20 393 49 393 90 L393 338 L625 682 C650 714 676 730 707 730 L707 750 L584 750 L584 730 L595 730 C627 730 634 707 613 675 L391 342 L147 684 C130 711 132 730 152 730 L159 730 L160 750 L160 750 Z M380 1015 C377 1020 368 1033 363 1033 C358 1033 348 1020 345 1015 L213 813 L220 808 L362 977 L505 808 L512 813 L380 1015 L380 1015 Z " />
<glyph glyph-name="Ydieresis" unicode="&#x178;" horiz-adv-x="715" d="M469 897 C469 940 404 941 404 898 C404 856 469 857 469 898 L469 897 L469 897 Z M323 898 C323 941 258 940 258 898 C258 857 323 856 323 898 L323 898 Z M160 751 L22 751 L22 731 C38 731 57 714 80 684 L334 330 L334 91 C334 50 313 21 284 21 L275 21 L275 1 L452 1 L452 21 L443 21 C414 21 393 50 393 91 L393 339 L625 683 C650 715 676 731 707 731 L707 751 L584 751 L584 731 L595 731 C627 731 634 708 613 676 L391 343 L147 685 C130 712 132 731 152 731 L159 731 L160 751 L160 751 Z " />
<glyph glyph-name="Zacute" unicode="&#x179;" horiz-adv-x="719" d="M394 813 L533 936 C574 973 603 1001 603 1005 C603 1018 592 1029 579 1029 C575 1029 547 1000 510 959 L387 820 L394 813 L394 813 Z M80 655 L85 667 C101 705 155 733 214 735 L634 738 L24 12 L24 0 L695 0 L697 9 C699 9 707 45 719 97 L702 97 L695 85 C672 46 612 18 550 17 L550 17 L96 13 L699 738 L699 750 L69 750 L68 734 C68 734 64 681 62 655 L80 655 L80 655 Z " />
<glyph glyph-name="Zdot" unicode="&#x17b;" horiz-adv-x="719" d="M419 897 C419 940 355 940 355 897 C355 855 419 855 419 897 L419 897 Z M80 655 L85 667 C101 705 155 733 214 735 L634 738 L24 12 L24 0 L695 0 L697 9 C699 9 707 45 719 97 L702 97 L695 85 C672 46 612 18 550 17 L550 17 L96 13 L699 738 L699 750 L69 750 L68 734 C68 734 64 681 62 655 L80 655 L80 655 Z " />
<glyph glyph-name="zdot" unicode="&#x17c;" horiz-adv-x="565" d="M326 647 C326 690 262 690 262 647 C262 605 326 605 326 647 L326 647 Z M64 500 C64 500 63 496 62 491 L61 491 L63 500 L64 500 L64 500 Z M60 486 C60 487 61 490 61 491 L59 491 C59 491 52 465 43 430 L62 430 L69 438 C89 462 135 480 181 483 L462 487 L39 12 L39 0 L519 0 C519 14 521 25 526 70 L507 70 L501 62 C484 38 440 20 394 17 L102 13 L523 488 L523 500 L65 500 L65 491 L60 491 C60 489 59 487 58 486 L60 486 L60 486 Z " />
<glyph glyph-name="Zcaron" unicode="&#x17d;" horiz-adv-x="719" d="M529 1042 L387 874 L245 1042 L238 1037 L369 835 C372 830 381 817 387 817 C393 817 402 830 405 835 L536 1037 L529 1042 L529 1042 Z M80 655 L85 667 C101 705 155 733 214 735 L634 738 L24 12 L24 0 L695 0 L697 9 C699 9 707 45 719 97 L702 97 L695 85 C672 46 612 18 550 17 L550 17 L96 13 L699 738 L699 750 L69 750 L68 734 C68 734 64 681 62 655 L80 655 L80 655 Z " />
<glyph glyph-name="zcaron" unicode="&#x17e;" horiz-adv-x="565" d="M436 792 L294 624 L152 792 L145 787 L276 585 C279 580 288 567 294 567 C300 567 309 580 312 585 L443 787 L436 792 L436 792 Z M64 500 C64 500 63 496 62 491 L61 491 L63 500 L64 500 L64 500 Z M60 486 C60 487 61 490 61 491 L59 491 C59 491 52 465 43 430 L62 430 L69 438 C89 462 135 480 181 483 L462 487 L39 12 L39 0 L519 0 C519 14 521 25 526 70 L507 70 L501 62 C484 38 440 20 394 17 L102 13 L523 488 L523 500 L65 500 L65 491 L60 491 C60 489 59 487 58 486 L60 486 L60 486 Z " />
<glyph glyph-name="oogonek" unicode="&#x1eb;" horiz-adv-x="798" d="M1102 -53 L1101 -52 C1073 -76 946 -93 800 -93 C629 -93 442 -58 348 -8 C362 -9 376 -10 390 -10 C597 -10 747 117 747 292 C747 467 601 593 400 593 C204 593 62 467 62 292 C62 148 155 37 293 2 C425 -73 635 -127 793 -127 C920 -127 1050 -96 1101 -53 L1102 -53 L1102 -53 Z M339 -4 C209 19 119 136 119 292 C119 465 237 590 399 590 C567 590 689 465 689 292 C689 118 562 -8 386 -8 C371 -8 356 -7 342 -5 C341 -5 340 -5 339 -5 L339 -4 L339 -4 Z " />
<glyph glyph-name="Adotabove" unicode="&#x226;" horiz-adv-x="719" d="M402 897 C402 940 337 939 337 897 C337 856 402 855 402 897 L402 897 Z M624 125 L624 125 L399 732 C399 732 389 770 385 770 L379 770 C382 752 366 736 340 732 L344 722 L108 116 C84 63 39 25 -3 25 L-17 25 L-17 0 L157 0 L157 25 L145 25 C108 25 95 63 112 116 L181 295 L500 295 L562 125 C583 67 570 25 531 25 L519 25 L519 0 L709 0 L709 25 L702 25 C678 25 644 67 623 125 L624 125 L624 125 Z M183 299 L345 718 L499 299 L183 299 L183 299 Z " />
<glyph glyph-name="G_sc" unicode="&#x262;" horiz-adv-x="735" d="M641 559 L636 551 C631 541 602 545 567 561 C567 561 515 580 509 582 L508 581 C474 589 433 593 383 593 C197 593 62 467 62 292 C62 117 194 -10 376 -10 C472 -10 555 5 627 28 L639 31 L639 32 C666 41 691 51 715 62 L714 63 C691 52 666 42 639 33 L639 141 C639 190 657 226 681 226 L688 226 L688 251 L537 251 L537 226 L544 226 C568 226 586 190 586 141 C586 141 586 70 586 68 C580 37 529 13 454 4 C499 8 549 14 573 17 C519 6 457 0 385 0 C232 0 121 122 121 291 C121 464 231 589 384 589 C433 589 473 583 506 573 C553 559 603 513 626 463 L636 443 L658 443 L658 558 L641 559 L641 559 Z M454 4 C433 1 410 0 385 0 C403 0 428 2 455 4 L454 4 L454 4 Z " />
<glyph glyph-name="I_sc" unicode="&#x26a;" horiz-adv-x="270" d="M210 20 C186 20 171 37 171 70 L171 513 C171 546 186 563 210 563 L210 583 L79 583 L79 563 C103 563 118 546 118 513 L118 70 C118 37 103 20 79 20 L79 0 L210 0 L210 20 L210 20 Z " />
<glyph glyph-name="N_sc" unicode="&#x274;" horiz-adv-x="675" d="M34 563 C55 563 73 554 96 534 L95 70 L95 70 C95 37 80 20 56 20 L56 0 L150 0 L150 20 C126 20 111 37 111 70 L111 70 L109 522 C110 521 111 520 112 519 C262 346 413 174 562 0 L572 0 L576 513 L576 513 C576 546 591 563 615 563 L615 583 L522 583 L522 563 C546 563 561 546 561 513 L561 513 L562 62 C415 235 268 409 121 583 L34 583 L34 563 L34 563 Z " />
<glyph glyph-name="R_sc" unicode="&#x280;" horiz-adv-x="619" d="M72 563 C96 563 111 546 111 513 L111 70 C111 37 96 20 72 20 L72 0 L203 0 L203 20 C179 20 164 37 164 70 L164 282 L309 282 C322 256 374 170 442 62 C478 4 490 0 609 0 L609 11 C541 11 534 15 504 62 C437 169 384 253 364 285 C457 297 520 342 520 420 C520 515 432 583 311 583 L72 583 L72 563 L72 563 Z M164 296 L164 573 L295 573 C392 573 462 513 462 430 C462 341 399 296 311 296 L164 296 L164 296 Z " />
<glyph glyph-name="Y_sc" unicode="&#x28f;" horiz-adv-x="601" d="M155 583 L25 583 L25 563 C41 563 65 542 90 508 L280 254 L280 90 C280 49 259 20 230 20 L221 20 L221 0 L392 0 L392 20 L383 20 C354 20 333 49 333 90 L333 262 C390 344 447 426 505 508 C530 544 561 563 592 563 L592 583 L471 583 L471 563 L481 563 C513 563 520 540 498 508 L499 508 L332 265 C272 346 211 427 152 508 C128 540 127 563 149 563 L155 563 L155 583 L155 583 Z " />
<glyph glyph-name="B_sc" unicode="&#x299;" horiz-adv-x="583" d="M300 300 C407 300 484 237 484 151 C484 34 398 1 280 1 L230 1 C192 1 164 39 164 91 L164 299 L264 299 C270 299 300 299 300 300 L300 300 Z M284 0 C434 0 543 33 543 151 C543 237 450 299 320 302 C443 315 527 370 527 443 C527 524 467 583 249 583 L71 583 L71 558 C95 558 110 541 110 508 L110 75 C110 42 95 25 71 25 L71 0 L284 0 L284 0 Z M262 302 L163 302 L163 581 L244 581 C424 581 474 521 474 437 C474 359 385 302 262 302 L262 302 Z " />
<glyph glyph-name="H_sc" unicode="&#x29c;" horiz-adv-x="726" d="M666 20 C642 20 627 37 627 70 L627 513 C627 546 642 563 666 563 L666 583 L535 583 L535 563 C559 563 574 546 574 513 L574 301 L200 301 L200 513 C200 546 215 563 239 563 L239 583 L108 583 L108 563 C132 563 147 546 147 513 L147 70 C147 37 132 20 108 20 L108 0 L239 0 L239 20 C215 20 200 37 200 70 L200 298 L574 298 L574 70 C574 37 559 20 535 20 L535 0 L666 0 L666 20 L666 20 Z " />
<glyph glyph-name="L_sc" unicode="&#x29f;" horiz-adv-x="539" d="M210 583 L79 583 L79 563 C103 563 118 546 118 513 L118 70 C118 37 103 20 79 20 L79 0 L510 0 L510 4 L524 88 L507 88 L501 76 C480 37 421 9 360 9 L251 9 C181 9 171 39 171 80 L171 513 C171 546 186 563 210 563 L210 583 L210 583 Z " />
<glyph glyph-name="circumflex" unicode="&#x2c6;" horiz-adv-x="452" d="M244 765 C241 770 232 783 226 783 C221 783 212 770 209 765 L77 563 L84 558 L226 726 L368 558 L375 563 L244 765 L244 765 Z " />
<glyph glyph-name="caron" unicode="&#x2c7;" horiz-adv-x="452" d="M368 792 L226 624 L84 792 L77 787 L209 585 C212 580 221 567 226 567 C232 567 241 580 244 585 L375 787 L368 792 L368 792 Z " />
<glyph glyph-name="firsttonechinese" unicode="&#x2c9;" horiz-adv-x="452" d="M9 651 L443 651 L443 686 L9 686 L9 651 L9 651 Z " />
<glyph glyph-name="breve" unicode="&#x2d8;" horiz-adv-x="452" d="M52 745 C55 684 128 639 226 639 C324 639 397 683 400 744 L389 745 C387 704 318 674 226 674 C134 674 65 704 63 746 L52 745 L52 745 Z " />
<glyph glyph-name="dotaccent" unicode="&#x2d9;" horiz-adv-x="452" d="M258 647 C258 690 194 690 194 647 C194 605 258 605 258 647 L258 647 Z " />
<glyph glyph-name="ring" unicode="&#x2da;" horiz-adv-x="452" d="M145 655 C145 703 179 738 226 738 C274 738 308 703 308 655 C308 612 269 572 226 572 C184 572 145 612 145 655 L145 655 Z M130 655 C130 605 176 560 226 560 C276 560 322 605 322 655 C322 710 282 750 226 750 C170 750 130 710 130 655 L130 655 Z " />
<glyph glyph-name="A_sc" unicode="&#x1d00;" horiz-adv-x="614" d="M119 125 L119 125 L161 229 L421 229 L465 115 C482 62 469 25 432 25 L420 25 L420 0 L604 0 L604 25 L597 25 C573 25 539 67 516 125 L341 571 C341 571 332 603 328 603 L323 603 C326 588 311 574 288 571 L292 561 L112 118 C87 64 40 25 -2 25 L-15 25 L-15 0 L157 0 L157 25 L145 25 C106 25 96 67 119 125 L119 125 Z M162 233 L293 557 L418 233 L162 233 L162 233 Z " />
<glyph glyph-name="C_sc" unicode="&#x1d04;" horiz-adv-x="705" d="M509 582 L508 581 C474 589 433 593 383 593 C197 593 62 467 62 292 C62 117 193 -10 373 -10 C424 -10 467 -5 504 4 L504 3 C526 10 625 56 634 31 L639 21 L656 21 L656 140 L634 140 L624 120 C603 75 556 32 510 14 C471 0 425 -8 371 -8 C224 -8 118 118 118 291 C118 464 228 589 381 589 C430 589 470 583 503 573 C550 559 600 513 623 463 L633 443 L655 443 L655 558 L638 558 L633 550 C628 540 599 544 564 560 C564 560 512 579 506 581 L509 582 L509 582 Z M649 99 L649 99 L649 99 L649 99 Z " />
<glyph glyph-name="D_sc" unicode="&#x1d05;" horiz-adv-x="762" d="M241 3 C174 3 164 35 164 80 L164 581 C164 581 275 581 275 580 C514 580 649 459 649 292 C649 108 478 3 241 3 L241 3 Z M72 563 C96 563 111 546 111 513 L111 70 C111 37 96 20 72 20 L72 0 L245 0 C513 0 707 106 707 292 C707 461 555 583 286 583 L72 583 L72 563 L72 563 Z " />
<glyph glyph-name="E_sc" unicode="&#x1d07;" horiz-adv-x="551" d="M52 563 L61 563 C90 563 111 534 111 493 L111 90 C111 49 90 20 61 20 L52 20 L52 0 L502 0 L502 1 L503 1 C507 24 513 59 517 82 L500 82 L494 70 C473 31 414 3 353 3 L244 3 C174 3 164 35 164 80 L164 299 L292 299 C338 299 382 267 396 223 L400 210 L417 210 L417 392 L400 392 L396 379 C382 335 338 303 292 303 L164 303 L164 580 L352 580 C398 580 446 548 465 504 L471 491 L488 491 C485 517 480 556 477 582 L477 583 L52 583 L52 563 L52 563 Z " />
<glyph glyph-name="J_sc" unicode="&#x1d0a;" horiz-adv-x="270" d="M210 583 L79 583 L79 563 C103 563 118 546 118 513 L118 -28 C118 -180 46 -215 -4 -215 C-30 -215 -18 -173 -44 -173 C-58 -173 -68 -183 -68 -196 C-68 -210 -43 -220 -8 -220 C65 -220 171 -165 171 72 L171 513 C171 546 186 563 210 563 L210 583 L210 583 Z " />
<glyph glyph-name="K_sc" unicode="&#x1d0b;" horiz-adv-x="621" d="M203 583 L72 583 L72 563 C96 563 111 546 111 513 L111 70 C111 37 96 20 72 20 L72 0 L203 0 L203 20 C179 20 164 37 164 70 L164 292 L513 0 L598 0 L598 20 C572 20 540 37 503 67 L209 321 L420 509 C464 545 503 563 540 563 L540 583 L373 583 L373 563 L386 563 C429 563 414 521 350 463 L163 292 L163 513 C163 546 178 563 202 563 L203 583 L203 583 Z " />
<glyph glyph-name="M_sc" unicode="&#x1d0d;" horiz-adv-x="769" d="M625 0 L755 0 L755 20 C732 20 718 34 714 62 C709 212 703 363 698 513 C697 546 711 563 735 563 L735 583 L646 583 L418 69 L155 583 L62 583 L62 563 C81 563 94 556 110 538 L93 61 C89 33 75 20 52 20 L52 0 L148 0 L148 20 C124 20 110 37 111 70 L123 519 C211 346 299 173 387 0 L400 0 L647 544 L663 63 C662 34 649 21 626 21 L625 0 L625 0 Z " />
<glyph glyph-name="O_sc" unicode="&#x1d0f;" horiz-adv-x="803" d="M120 292 C120 465 238 590 400 590 C568 590 690 465 690 292 C690 119 564 -7 391 -7 C234 -7 120 119 120 292 L120 292 Z M63 292 C63 117 201 -10 391 -10 C598 -10 748 117 748 292 C748 467 602 593 401 593 C205 593 63 467 63 292 L63 292 Z " />
<glyph glyph-name="P_sc" unicode="&#x1d18;" horiz-adv-x="529" d="M216 20 C192 20 177 37 177 70 L177 273 L228 273 C391 273 509 322 509 420 C509 515 412 583 278 583 L85 583 L85 563 C109 563 124 546 124 513 L124 70 C124 37 109 20 85 20 L85 0 L216 0 L216 20 L216 20 Z M177 284 L177 574 L265 574 C378 574 459 513 459 429 C459 332 362 284 228 284 L177 284 L177 284 Z " />
<glyph glyph-name="T_sc" unicode="&#x1d1b;" horiz-adv-x="777" d="M723 583 L55 583 L55 582 L52 576 L55 582 L55 572 C45 547 31 514 22 491 L39 491 L48 503 C78 542 135 570 184 570 L362 570 L362 70 C362 37 347 20 323 20 L323 0 L454 0 L454 20 C430 20 415 37 415 70 L415 570 L594 570 C643 570 700 542 730 503 L739 491 L756 491 C747 514 733 547 723 572 L723 583 L723 583 Z " />
<glyph glyph-name="U_sc" unicode="&#x1d1c;" horiz-adv-x="601" d="M571 38 C549 31 532 43 532 77 L532 583 L440 583 L440 563 C464 563 479 546 479 513 L479 165 C441 83 340 24 239 24 C175 24 129 103 129 212 L129 583 L37 583 L37 563 C61 563 76 546 76 513 L76 212 C76 83 136 -10 218 -10 C328 -10 438 54 479 142 L479 0 L506 0 L532 7 C532 9 570 17 571 17 L571 38 L571 38 Z " />
<glyph glyph-name="V_sc" unicode="&#x1d20;" horiz-adv-x="663" d="M95 458 L95 458 C166 302 236 145 307 -10 L317 -10 C393 146 468 303 544 458 C572 516 608 558 629 558 L636 558 L636 583 L479 583 L479 558 L493 558 C537 558 551 520 528 466 L345 72 C283 201 221 330 160 459 C132 517 140 559 178 559 L189 559 L189 584 L21 584 L21 559 C41 559 68 520 95 459 L95 458 L95 458 Z " />
<glyph glyph-name="W_sc" unicode="&#x1d21;" horiz-adv-x="970" d="M474 478 L474 478 L509 388 L325 64 L141 484 C124 527 129 558 154 558 L162 558 L162 583 L21 583 L21 558 C41 558 62 527 82 478 L82 478 C149 315 216 153 282 -10 L295 -10 L515 371 C565 244 615 117 665 -10 L678 -10 L870 484 C890 532 916 559 947 559 L947 584 L789 584 L789 559 L802 559 C846 559 866 525 848 479 L848 479 L695 74 C640 209 584 345 530 479 C511 525 524 559 560 559 L571 559 L571 584 L405 584 L405 559 C428 559 451 529 470 479 L474 478 L474 478 Z " />
<glyph glyph-name="Z_sc" unicode="&#x1d22;" horiz-adv-x="632" d="M80 490 L85 502 C102 541 158 570 219 570 L553 573 L25 11 L25 0 L609 0 C616 28 620 46 632 94 L615 94 L608 82 C585 43 525 15 463 14 L463 14 L91 11 L613 572 L613 582 L568 582 L564 583 L563 582 L70 582 L69 568 C69 568 65 517 63 489 L80 490 L80 490 Z " />
<glyph glyph-name="Wgrave" unicode="&#x1e80;" horiz-adv-x="1151" d="M557 645 L557 645 L611 500 L375 71 L140 655 C126 696 133 725 158 725 L166 725 L166 750 L17 750 L17 725 C37 725 54 701 73 658 C159 435 246 213 331 -10 L346 -10 L619 479 C680 316 741 153 802 -10 L817 -10 L1055 651 C1074 699 1100 726 1131 726 L1131 751 L969 751 L969 726 L982 726 C1027 726 1047 692 1031 646 L1031 646 L834 82 C764 270 692 459 622 646 C605 692 618 726 655 726 L666 726 L666 751 L492 751 L492 726 C515 726 537 696 555 646 L557 645 L557 645 Z M357 1006 C357 1000 386 972 427 937 L566 814 L573 821 L450 960 C415 1001 387 1030 381 1030 C368 1030 357 1019 357 1006 L357 1006 Z " />
<glyph glyph-name="Wacute" unicode="&#x1e82;" horiz-adv-x="1151" d="M572 813 L711 936 C752 973 781 1001 781 1005 C781 1018 770 1029 757 1029 C753 1029 725 1000 688 959 L565 820 L572 813 L572 813 Z M557 645 L557 645 L611 500 L375 71 L140 655 C126 696 133 725 158 725 L166 725 L166 750 L17 750 L17 725 C37 725 54 701 73 658 C159 435 246 213 331 -10 L346 -10 L619 479 C680 316 741 153 802 -10 L817 -10 L1055 651 C1074 699 1100 726 1131 726 L1131 751 L969 751 L969 726 L982 726 C1027 726 1047 692 1031 646 L1031 646 L834 82 C764 270 692 459 622 646 C605 692 618 726 655 726 L666 726 L666 751 L492 751 L492 726 C515 726 537 696 555 646 L557 645 L557 645 Z " />
<glyph glyph-name="Wdieresis" unicode="&#x1e84;" horiz-adv-x="1151" d="M670 897 C670 940 605 939 605 897 C605 856 670 855 670 897 L670 897 Z M525 897 C525 940 460 941 460 898 C460 856 525 857 525 898 L525 897 L525 897 Z M557 646 L557 646 L611 501 L375 72 L140 656 C126 697 133 726 158 726 L166 726 L166 751 L17 751 L17 726 C37 726 54 702 73 659 C159 436 246 214 331 -9 L346 -9 L619 480 C680 317 741 154 802 -9 L817 -9 L1055 652 C1074 700 1100 727 1131 727 L1131 752 L969 752 L969 727 L982 727 C1027 727 1047 693 1031 647 L1031 647 L834 83 C764 271 692 460 622 647 C605 693 618 727 655 727 L666 727 L666 752 L492 752 L492 727 C515 727 537 697 555 647 L557 646 L557 646 Z " />
<glyph glyph-name="Etilde" unicode="&#x1ebc;" horiz-adv-x="642" d="M134 870 C134 908 163 936 203 936 C278 936 388 871 463 871 C513 871 549 911 549 966 L546 966 C546 931 516 906 475 906 C399 906 290 971 214 971 C166 971 131 929 131 870 L134 870 L134 870 Z M51 730 L60 730 C89 730 110 701 110 660 L110 90 C110 49 89 20 60 20 L51 20 L51 0 L593 0 L593 1 L594 1 C598 24 604 59 608 82 L591 82 L585 70 C565 31 506 3 445 3 L248 3 C178 3 168 35 168 80 L168 385 L383 385 C429 385 473 353 487 309 L491 296 L508 296 L508 478 L491 478 L487 465 C473 421 429 389 383 389 L168 389 L168 747 L443 747 C489 747 537 715 556 671 L562 658 L579 658 C576 684 571 723 568 749 L568 750 L51 750 L51 730 L51 730 Z " />
<glyph glyph-name="Ygrave" unicode="&#x1ef2;" horiz-adv-x="715" d="M160 750 L22 750 L22 730 C38 730 57 713 80 683 L334 329 L334 90 C334 49 313 20 284 20 L275 20 L275 0 L452 0 L452 20 L443 20 C414 20 393 49 393 90 L393 338 L625 682 C650 714 676 730 707 730 L707 750 L584 750 L584 730 L595 730 C627 730 634 707 613 675 L391 342 L147 684 C130 711 132 730 152 730 L159 730 L160 750 L160 750 Z M157 1005 C157 999 186 971 227 936 L366 813 L372 820 L250 959 C215 1000 187 1029 182 1029 C169 1029 157 1018 157 1005 L157 1005 Z " />
<glyph glyph-name="quoteleft" unicode="&#x2018;" horiz-adv-x="768" d="M76 632 C76 633 76 634 76 635 C76 692 99 739 131 748 L121 759 C87 750 62 694 62 625 C62 606 74 592 91 592 C105 592 115 602 115 615 C115 634 89 649 76 631 L76 632 L76 632 Z " />
<glyph glyph-name="quoteright" unicode="&#x2019;" horiz-adv-x="101" d="M92 720 C92 658 78 609 58 604 L69 593 C92 599 108 657 108 731 C108 764 54 772 54 736 C54 718 79 704 92 720 L92 720 Z " />
<glyph glyph-name="quotedblleft" unicode="&#x201c;" horiz-adv-x="768" d="M137 632 C137 633 137 634 137 635 C137 692 160 739 192 748 L182 759 C148 750 123 694 123 625 C123 606 135 592 152 592 C166 592 176 602 176 615 C176 634 150 649 137 631 L137 632 L137 632 Z M64 631 C64 632 64 633 64 634 C64 691 87 738 119 747 L109 758 C75 749 50 693 50 624 C50 605 62 591 79 591 C93 591 103 601 103 614 C103 633 77 648 64 630 L64 631 L64 631 Z " />
<glyph glyph-name="quotedblright" unicode="&#x201d;" horiz-adv-x="768" d="M165 720 C165 658 151 609 132 604 L143 593 C165 599 181 657 181 731 C181 763 128 772 128 736 C128 717 153 704 165 720 L165 720 Z M92 720 C92 658 78 609 58 604 L69 593 C92 599 108 657 108 731 C108 764 54 772 54 736 C54 718 79 704 92 720 L92 720 Z " />
<glyph glyph-name="Euro" unicode="&#x20ac;" horiz-adv-x="868" d="M822 49 L822 122 L815 128 C815 128 821 123 822 122 L822 168 L801 168 L793 149 C773 104 724 56 678 34 L678 34 C624 9 559 -6 480 -6 C321 -6 201 125 180 314 L554 314 L559 350 L178 350 C177 366 177 383 178 399 L559 399 L564 435 L181 435 C203 624 328 755 495 755 C575 755 635 741 684 717 L684 717 C728 696 774 647 795 600 L803 581 L824 581 L824 697 L809 697 L805 688 C800 676 773 682 741 702 C685 737 610 759 494 759 C294 759 144 626 118 435 L63 435 L58 399 L115 399 C114 383 114 366 115 350 L58 350 L53 314 L118 314 C144 123 289 -10 482 -10 C594 -10 677 13 739 49 C773 69 801 73 806 59 L810 49 L822 49 L822 49 Z M818 622 L818 622 L818 622 L818 622 Z " />
<glyph glyph-name="F_sc" unicode="&#xa730;" horiz-adv-x="526" d="M52 563 L61 563 C90 563 111 534 111 493 L111 90 C111 49 90 20 61 20 L52 20 L52 0 L223 0 L223 20 L214 20 C185 20 164 49 164 90 L164 299 L282 299 C328 299 372 267 386 223 L390 210 L407 210 L407 392 L390 392 L386 379 C372 335 328 303 282 303 L164 303 L164 581 L352 581 C398 581 446 549 465 505 L471 492 L488 492 C485 518 480 556 477 582 L477 583 L52 583 L52 563 L52 563 Z " />
<glyph glyph-name="S_sc" unicode="&#xa731;" horiz-adv-x="547" d="M298 595 L297 590 C280 592 263 593 245 593 C145 593 73 532 73 448 C73 399 151 328 288 264 C400 212 464 158 464 125 C464 49 397 -6 304 -6 C269 -6 234 0 202 11 C153 30 104 80 83 132 L74 155 L51 155 L51 13 L69 13 L73 26 C79 42 109 42 147 25 C166 15 188 5 209 -2 L210 0 C239 -8 270 -12 302 -12 C419 -12 504 51 504 138 C504 192 437 262 318 317 C187 378 112 436 112 467 C112 537 167 588 243 588 C265 588 287 586 308 581 C358 567 408 525 429 476 L439 455 L461 455 L461 562 L444 562 L439 556 C434 549 407 554 376 566 C350 576 324 587 295 592 L298 595 L298 595 Z M58 116 L58 116 L58 116 L58 116 Z " />
<glyph glyph-name="X_sc" unicode="&#xf078;" horiz-adv-x="655" d="M199 583 L69 583 L69 563 C85 563 104 548 129 520 L319 284 C257 215 196 145 134 76 C103 40 69 21 36 21 L36 1 L169 1 L169 21 L160 21 C131 21 127 41 149 70 L326 276 C379 209 434 142 487 76 C513 44 516 21 495 21 L489 21 L489 1 L619 1 L619 21 C603 21 584 36 559 64 L358 312 L547 516 C579 547 609 562 640 562 L640 582 L507 582 L507 562 L516 562 C566 562 521 507 521 507 L355 314 C303 378 250 443 199 507 C173 539 170 562 191 562 L197 562 L199 583 L199 583 Z " />
</font>
</svg>
